<svg width="216" height="207" viewBox="0 0 216 207" fill="none" xmlns="http://www.w3.org/2000/svg">
<path d="M40.4609 28.7271H65.9725V71.754H115.472V30.6309H149.171M181.346 179.131H77.3956L54.1686 168.85V123.158H118.519H182.869V90.0309H149.171V30.6309M149.171 30.6309H182.869V65.4713" stroke="#7470FF" stroke-width="3.80769" stroke-dasharray="3.81 3.81"/>
<g filter="url(#filter0_d_2008_3744)">
<path d="M47.2259 62.6322C47.2259 63.4059 46.5979 64.0338 45.8242 64.0338H38.8158C38.042 64.0338 37.4141 63.4059 37.4141 62.6322C37.4141 61.8584 38.042 61.2305 38.8158 61.2305H45.8242C46.5979 61.2305 47.2259 61.8584 47.2259 62.6322ZM44.4225 69.6406C44.4225 70.4143 43.7946 71.0423 43.0208 71.0423H38.8158C38.042 71.0423 37.4141 70.4143 37.4141 69.6406C37.4141 68.8669 38.042 68.2389 38.8158 68.2389H43.0208C43.7946 68.2389 44.4225 68.8669 44.4225 69.6406ZM41.6191 76.6491C41.6191 77.4242 40.9912 78.0507 40.2174 78.0507H38.8158C38.042 78.0507 37.4141 77.4242 37.4141 76.6491C37.4141 75.8739 38.042 75.2474 38.8158 75.2474H40.2174C40.9912 75.2474 41.6191 75.8739 41.6191 76.6491Z" fill="#55ACEE"/>
<path d="M82.6903 80.8543C81.8129 83.9506 78.5904 86.461 75.494 86.461H47.4602C44.3639 86.461 42.5655 83.9506 43.443 80.8543L48.2059 64.034C49.0834 60.9377 52.3045 58.4272 55.4008 58.4272H83.4346C86.531 58.4272 88.3307 60.9377 87.4533 64.034L82.6903 80.8543Z" fill="#CCD6DD"/>
<path d="M61.7133 70.5321L43.5586 83.5861C43.5109 83.6253 43.4829 83.6744 43.4395 83.7136C43.6904 84.5126 44.1655 85.1756 44.8299 85.6536C44.879 85.6213 44.9323 85.6073 44.9799 85.5695L63.1346 72.5141C63.8368 71.9661 64.0891 71.0802 63.6967 70.5321C63.3028 69.9841 62.4169 69.9841 61.7133 70.5321ZM81.0706 83.7136C81.0496 83.6744 81.0482 83.6253 81.023 83.5875L70.2664 70.5321C69.8725 69.9841 68.9867 69.9841 68.2816 70.5321C67.5794 71.0802 67.3285 71.9661 67.7209 72.5141L78.4803 85.5695C78.5055 85.6059 78.5518 85.6213 78.5812 85.6536C79.5148 85.177 80.367 84.5126 81.0706 83.7136Z" fill="#99AAB5"/>
<path d="M87.4525 64.034C88.33 60.9377 86.5302 58.4272 83.4339 58.4272H55.4001C52.3038 58.4272 49.0827 60.9377 48.2052 64.034L48.1758 64.1377L60.5191 75.9848C62.8052 78.2051 65.8287 78.0523 68.5437 76.5048L87.0839 65.3418L87.4525 64.034Z" fill="#99AAB5"/>
<path d="M83.435 58.4272H55.4012C53.1893 58.4272 50.9312 59.7182 49.4902 61.5782L62.4096 73.9047C63.4595 74.9125 65.8213 74.9265 67.5342 73.9047L87.5699 61.6147C87.1971 59.735 85.6608 58.4272 83.435 58.4272Z" fill="#E1E8ED"/>
</g>
<g filter="url(#filter1_d_2008_3744)">
<path d="M204.17 135.313C204.17 137.694 202.238 139.626 199.857 139.626H169.666C167.285 139.626 165.354 137.694 165.354 135.313V115.905C165.354 113.523 167.285 111.592 169.666 111.592H199.857C202.238 111.592 204.17 113.523 204.17 115.905V135.313Z" fill="#CCD6DD"/>
<path d="M178.237 125.217L166.039 137.415C166.01 137.445 165.999 137.483 165.975 137.513C166.341 138.128 166.852 138.638 167.467 139.005C167.498 138.981 167.535 138.97 167.564 138.941L179.763 126.742C180.183 126.32 180.183 125.639 179.763 125.217C179.34 124.795 178.659 124.795 178.237 125.217ZM203.546 137.513C203.524 137.483 203.511 137.445 203.482 137.416L191.285 125.217C190.862 124.795 190.181 124.795 189.759 125.217C189.338 125.64 189.338 126.321 189.759 126.742L201.957 138.941C201.985 138.969 202.024 138.981 202.054 139.005C202.67 138.639 203.18 138.128 203.546 137.513Z" fill="#99AAB5"/>
<path d="M199.857 111.592H169.666C167.285 111.592 165.354 113.523 165.354 115.905V117.015L181.018 132.645C183.06 134.686 186.396 134.686 188.44 132.645L204.17 116.993V115.905C204.17 113.523 202.238 111.592 199.857 111.592Z" fill="#99AAB5"/>
<path d="M199.857 111.592H169.667C167.955 111.592 166.488 112.599 165.791 114.045L181.712 129.967C183.396 131.651 186.128 131.651 187.812 129.967L203.734 114.045C203.037 112.599 201.571 111.592 199.857 111.592Z" fill="#E1E8ED"/>
<path d="M198.215 118.601L184.296 132.617L177.969 126.246" stroke="#46941B" stroke-width="4.56923" stroke-linecap="round" stroke-linejoin="round"/>
</g>
<g filter="url(#filter2_d_2008_3744)">
<path d="M204.17 68.4401C204.17 70.8219 202.238 72.753 199.857 72.753H169.666C167.285 72.753 165.354 70.8219 165.354 68.4401V49.0321C165.354 46.6503 167.285 44.7192 169.666 44.7192H199.857C202.238 44.7192 204.17 46.6503 204.17 49.0321V68.4401Z" fill="#CCD6DD"/>
<path d="M178.237 58.3445L166.039 70.5424C166.01 70.5726 165.999 70.6104 165.975 70.6406C166.341 71.2552 166.852 71.7651 167.467 72.1328C167.498 72.108 167.535 72.0972 167.564 72.0681L179.763 59.8691C180.183 59.4475 180.183 58.7661 179.763 58.3445C179.34 57.9229 178.659 57.9229 178.237 58.3445ZM203.546 70.6406C203.524 70.6104 203.511 70.5726 203.482 70.5435L191.285 58.3445C190.862 57.9229 190.181 57.9229 189.759 58.3445C189.338 58.7672 189.338 59.4486 189.759 59.8691L201.957 72.0681C201.985 72.0962 202.024 72.108 202.054 72.1328C202.67 71.7662 203.18 71.2552 203.546 70.6406Z" fill="#99AAB5"/>
<path d="M199.857 44.7192H169.666C167.285 44.7192 165.354 46.6503 165.354 49.0321V50.1427L181.018 65.7726C183.06 67.8137 186.396 67.8137 188.44 65.7726L204.17 50.1201V49.0321C204.17 46.6503 202.238 44.7192 199.857 44.7192Z" fill="#99AAB5"/>
<path d="M199.857 44.7192H169.667C167.955 44.7192 166.488 45.7263 165.791 47.1722L181.712 63.0943C183.396 64.7785 186.128 64.7785 187.812 63.0943L203.734 47.1722C203.037 45.7263 201.571 44.7192 199.857 44.7192Z" fill="#E1E8ED"/>
<path d="M192.086 51.7275L178.166 65.7444" stroke="#EE6055" stroke-width="4.56923" stroke-linecap="round" stroke-linejoin="round"/>
<path d="M178.166 51.7275L192.086 65.7444" stroke="#EE6055" stroke-width="4.56923" stroke-linecap="round" stroke-linejoin="round"/>
</g>
<g filter="url(#filter3_d_2008_3744)">
<path d="M128.589 26.4851C128.589 38.1197 133.877 37.062 133.877 42.3504C133.877 42.3504 133.877 44.4658 131.762 44.4658H104.262C102.146 44.4658 102.146 42.3504 102.146 42.3504C102.146 37.062 107.435 38.1197 107.435 26.4851C107.435 20.6445 112.17 15.9082 118.012 15.9082C123.853 15.9082 128.589 20.6445 128.589 26.4851Z" fill="#FFAC33"/>
<path d="M118.009 19.081C119.761 19.081 121.182 17.6604 121.182 15.9079C121.182 14.1555 119.761 12.7349 118.009 12.7349C116.257 12.7349 114.836 14.1555 114.836 15.9079C114.836 17.6604 116.257 19.081 118.009 19.081Z" fill="#FFAC33"/>
<path d="M118.012 50.8113C120.348 50.8113 122.243 48.917 122.243 46.5806H113.781C113.781 48.917 115.676 50.8113 118.012 50.8113Z" fill="#FFAC33"/>
</g>
<g filter="url(#filter4_d_2008_3744)">
<path d="M188.961 195.377C197.723 195.377 204.826 188.274 204.826 179.511C204.826 170.749 197.723 163.646 188.961 163.646C180.199 163.646 173.096 170.749 173.096 179.511C173.096 188.274 180.199 195.377 188.961 195.377Z" fill="#EE6055" stroke="#EE6055" stroke-width="1.52308" stroke-linecap="round" stroke-linejoin="round"/>
<path d="M193.72 174.752L184.201 184.271" stroke="white" stroke-width="3.80769" stroke-linecap="round" stroke-linejoin="round"/>
<path d="M184.201 174.752L193.72 184.271" stroke="white" stroke-width="3.80769" stroke-linecap="round" stroke-linejoin="round"/>
</g>
<g filter="url(#filter5_d_2008_3744)">
<path d="M39.0705 169.087V170.4H41.6965V169.087C41.6965 168.501 41.8147 167.948 41.9919 167.422C38.7803 166.428 36.4458 163.433 36.4458 159.894C36.4458 155.543 39.9739 152.016 44.3238 152.016C46.4286 152.016 48.335 152.846 49.7478 154.191C50.5711 149.96 54.2947 146.766 58.7655 146.766C63.8415 146.766 67.9565 150.881 67.9565 155.957C67.9565 159.306 66.159 162.229 63.4805 163.835H64.0175C66.9179 163.835 69.2695 166.186 69.2695 169.087H70.5825L78.4604 163.835H79.7734V182.217H78.4604L70.5825 176.965H69.2695V179.591C69.2695 182.491 66.9179 184.843 64.0175 184.843H46.9485C44.0481 184.843 41.6965 182.491 41.6965 179.591V175.652H39.0705V176.965H35.1315V169.087H39.0705Z" fill="#31373D"/>
<path d="M52.2001 155.957C52.2001 159.582 55.1399 162.522 58.7651 162.522C62.3903 162.522 65.3301 159.582 65.3301 155.957C65.3301 152.331 62.3903 149.392 58.7651 149.392C55.1399 149.392 52.2001 152.33 52.2001 155.957Z" fill="#66757F"/>
<path d="M58.7666 158.583C57.3163 158.583 56.1406 157.407 56.1406 155.957C56.1406 154.506 57.3163 153.331 58.7666 153.331C60.2169 153.331 61.3926 154.506 61.3926 155.957C61.3926 157.407 60.2169 158.583 58.7666 158.583Z" fill="#CCD6DD"/>
<path d="M44.3242 165.148C41.4236 165.148 39.0722 162.796 39.0722 159.896C39.0722 156.995 41.4236 154.644 44.3242 154.644C47.2248 154.644 49.5762 156.995 49.5762 159.896C49.5762 162.796 47.2248 165.148 44.3242 165.148Z" fill="#66757F"/>
<path d="M44.3232 162.522C42.8729 162.522 41.6972 161.346 41.6972 159.896C41.6972 158.445 42.8729 157.27 44.3232 157.27C45.7735 157.27 46.9492 158.445 46.9492 159.896C46.9492 161.346 45.7735 162.522 44.3232 162.522Z" fill="#CCD6DD"/>
<path d="M58.7695 167.773H45.6396V180.903H58.7695V167.773Z" fill="#8899A6"/>
<path d="M56.1387 170.4H48.2607V178.278H56.1387V170.4Z" fill="#31373D"/>
<path d="M64.0166 180.903C62.5663 180.903 61.3906 179.728 61.3906 178.277C61.3906 176.827 62.5663 175.651 64.0166 175.651C65.4669 175.651 66.6426 176.827 66.6426 178.277C66.6426 179.728 65.4669 180.903 64.0166 180.903Z" fill="#8899A6"/>
</g>
<g filter="url(#filter6_d_2008_3744)">
<path d="M39.6154 44.2963C39.6154 46.6328 37.7211 48.5271 35.3846 48.5271H14.2308C11.8943 48.5271 10 46.5439 10 40.0656V14.681C10 12.3445 11.8943 10.4502 14.2308 10.4502H35.3846C37.7211 10.4502 39.6154 12.3445 39.6154 14.681V44.2963Z" fill="#CCD6DD"/>
<path d="M42.7901 48.5268H14.2324C18.4632 48.5268 18.4632 40.0652 18.4632 40.0652C18.4632 37.7288 20.3575 35.8345 22.694 35.8345H43.8478C46.1843 35.8345 48.0786 37.9499 48.0786 40.0652C48.0786 40.0652 48.343 48.5268 42.7901 48.5268Z" fill="#E1E8ED"/>
<path d="M35.3863 17.8541C35.3863 18.4379 34.9135 18.9118 34.3286 18.9118H15.2901C14.7063 18.9118 14.2324 18.4379 14.2324 17.8541C14.2324 17.2702 14.7063 16.7964 15.2901 16.7964H34.3286C34.9135 16.7964 35.3863 17.2702 35.3863 17.8541ZM35.3863 22.0848C35.3863 22.6687 34.9135 23.1425 34.3286 23.1425H15.2901C14.7063 23.1425 14.2324 22.6687 14.2324 22.0848C14.2324 21.501 14.7063 21.0272 15.2901 21.0272H34.3286C34.9135 21.0272 35.3863 21.501 35.3863 22.0848ZM35.3863 26.3156C35.3863 26.8995 34.9135 27.3733 34.3286 27.3733H15.2901C14.7063 27.3733 14.2324 26.8995 14.2324 26.3156C14.2324 25.7318 14.7063 25.2579 15.2901 25.2579H34.3286C34.9135 25.2579 35.3863 25.7318 35.3863 26.3156ZM35.3863 30.5464C35.3863 31.1313 34.9135 31.6041 34.3286 31.6041H15.2901C14.7063 31.6041 14.2324 31.1313 14.2324 30.5464C14.2324 29.9615 14.7063 29.4887 15.2901 29.4887H34.3286C34.9135 29.4887 35.3863 29.9615 35.3863 30.5464Z" fill="#99AAB5"/>
</g>
<path d="M123.559 103.716H94.4418C92.5861 103.716 91.082 105.22 91.082 107.076V136.194C91.082 138.049 92.5861 139.553 94.4418 139.553H123.559C125.415 139.553 126.919 138.049 126.919 136.194V107.076C126.919 105.22 125.415 103.716 123.559 103.716Z" fill="#CCD6DD"/>
<path d="M123.56 102.596H94.4425C91.9686 102.596 89.9629 104.602 89.9629 107.076V136.193C89.9629 138.667 91.9686 140.673 94.4425 140.673H123.56C126.034 140.673 128.04 138.667 128.04 136.193V107.076C128.04 104.602 126.034 102.596 123.56 102.596ZM123.56 104.836C124.795 104.836 125.8 105.841 125.8 107.076V111.555H119.081V104.836H123.56ZM119.081 122.755H125.8V129.474H119.081V122.755ZM119.081 120.515V113.795H125.8V120.515H119.081ZM116.841 104.836V111.555H110.121V104.836H116.841ZM110.121 113.795H116.841V120.515H110.121V113.795ZM110.121 122.755H116.841V129.474H110.121V122.755ZM107.881 104.836V111.555H101.162V104.836H107.881ZM101.162 113.795H107.881V120.515H101.162V113.795ZM101.162 122.755H107.881V129.474H101.162V122.755ZM92.2027 107.076C92.2027 105.841 93.2073 104.836 94.4425 104.836H98.9222V111.555H92.2027V107.076ZM92.2027 113.795H98.9222V120.515H92.2027V113.795ZM92.2027 122.755H98.9222V129.474H92.2027V122.755ZM94.4425 138.433C93.2073 138.433 92.2027 137.429 92.2027 136.193V131.714H98.9222V138.433H94.4425ZM101.162 138.433V131.714H107.881V138.433H101.162ZM110.121 138.433V131.714H116.841V138.433H110.121ZM123.56 138.433H119.081V131.714H125.8V136.193C125.8 137.429 124.795 138.433 123.56 138.433Z" fill="#E1E8ED"/>
<defs>
<filter id="filter0_d_2008_3744" x="27.4141" y="48.4272" width="70.2617" height="48.0337" filterUnits="userSpaceOnUse" color-interpolation-filters="sRGB">
<feFlood flood-opacity="0" result="BackgroundImageFix"/>
<feColorMatrix in="SourceAlpha" type="matrix" values="0 0 0 0 0 0 0 0 0 0 0 0 0 0 0 0 0 0 127 0" result="hardAlpha"/>
<feOffset/>
<feGaussianBlur stdDeviation="5"/>
<feColorMatrix type="matrix" values="0 0 0 0 0 0 0 0 0 0 0 0 0 0 0 0 0 0 0.25 0"/>
<feBlend mode="normal" in2="BackgroundImageFix" result="effect1_dropShadow_2008_3744"/>
<feBlend mode="normal" in="SourceGraphic" in2="effect1_dropShadow_2008_3744" result="shape"/>
</filter>
<filter id="filter1_d_2008_3744" x="155.354" y="101.592" width="58.8164" height="48.0337" filterUnits="userSpaceOnUse" color-interpolation-filters="sRGB">
<feFlood flood-opacity="0" result="BackgroundImageFix"/>
<feColorMatrix in="SourceAlpha" type="matrix" values="0 0 0 0 0 0 0 0 0 0 0 0 0 0 0 0 0 0 127 0" result="hardAlpha"/>
<feOffset/>
<feGaussianBlur stdDeviation="5"/>
<feColorMatrix type="matrix" values="0 0 0 0 0 0 0 0 0 0 0 0 0 0 0 0 0 0 0.25 0"/>
<feBlend mode="normal" in2="BackgroundImageFix" result="effect1_dropShadow_2008_3744"/>
<feBlend mode="normal" in="SourceGraphic" in2="effect1_dropShadow_2008_3744" result="shape"/>
</filter>
<filter id="filter2_d_2008_3744" x="155.354" y="34.7192" width="58.8164" height="48.0337" filterUnits="userSpaceOnUse" color-interpolation-filters="sRGB">
<feFlood flood-opacity="0" result="BackgroundImageFix"/>
<feColorMatrix in="SourceAlpha" type="matrix" values="0 0 0 0 0 0 0 0 0 0 0 0 0 0 0 0 0 0 127 0" result="hardAlpha"/>
<feOffset/>
<feGaussianBlur stdDeviation="5"/>
<feColorMatrix type="matrix" values="0 0 0 0 0 0 0 0 0 0 0 0 0 0 0 0 0 0 0.25 0"/>
<feBlend mode="normal" in2="BackgroundImageFix" result="effect1_dropShadow_2008_3744"/>
<feBlend mode="normal" in="SourceGraphic" in2="effect1_dropShadow_2008_3744" result="shape"/>
</filter>
<filter id="filter3_d_2008_3744" x="92.1465" y="2.73486" width="51.7305" height="58.0767" filterUnits="userSpaceOnUse" color-interpolation-filters="sRGB">
<feFlood flood-opacity="0" result="BackgroundImageFix"/>
<feColorMatrix in="SourceAlpha" type="matrix" values="0 0 0 0 0 0 0 0 0 0 0 0 0 0 0 0 0 0 127 0" result="hardAlpha"/>
<feOffset/>
<feGaussianBlur stdDeviation="5"/>
<feColorMatrix type="matrix" values="0 0 0 0 0 0 0 0 0 0 0 0 0 0 0 0 0 0 0.25 0"/>
<feBlend mode="normal" in2="BackgroundImageFix" result="effect1_dropShadow_2008_3744"/>
<feBlend mode="normal" in="SourceGraphic" in2="effect1_dropShadow_2008_3744" result="shape"/>
</filter>
<filter id="filter4_d_2008_3744" x="159.924" y="150.473" width="58.0762" height="58.0771" filterUnits="userSpaceOnUse" color-interpolation-filters="sRGB">
<feFlood flood-opacity="0" result="BackgroundImageFix"/>
<feColorMatrix in="SourceAlpha" type="matrix" values="0 0 0 0 0 0 0 0 0 0 0 0 0 0 0 0 0 0 127 0" result="hardAlpha"/>
<feOffset/>
<feGaussianBlur stdDeviation="5"/>
<feColorMatrix type="matrix" values="0 0 0 0 0 0 0 0 0 0 0 0 0 0 0 0 0 0 0.25 0"/>
<feBlend mode="normal" in2="BackgroundImageFix" result="effect1_dropShadow_2008_3744"/>
<feBlend mode="normal" in="SourceGraphic" in2="effect1_dropShadow_2008_3744" result="shape"/>
</filter>
<filter id="filter5_d_2008_3744" x="25.1309" y="136.766" width="64.6426" height="58.0771" filterUnits="userSpaceOnUse" color-interpolation-filters="sRGB">
<feFlood flood-opacity="0" result="BackgroundImageFix"/>
<feColorMatrix in="SourceAlpha" type="matrix" values="0 0 0 0 0 0 0 0 0 0 0 0 0 0 0 0 0 0 127 0" result="hardAlpha"/>
<feOffset/>
<feGaussianBlur stdDeviation="5"/>
<feColorMatrix type="matrix" values="0 0 0 0 0 0 0 0 0 0 0 0 0 0 0 0 0 0 0.25 0"/>
<feBlend mode="normal" in2="BackgroundImageFix" result="effect1_dropShadow_2008_3744"/>
<feBlend mode="normal" in="SourceGraphic" in2="effect1_dropShadow_2008_3744" result="shape"/>
</filter>
<filter id="filter6_d_2008_3744" x="0" y="0.450195" width="58.0801" height="58.0771" filterUnits="userSpaceOnUse" color-interpolation-filters="sRGB">
<feFlood flood-opacity="0" result="BackgroundImageFix"/>
<feColorMatrix in="SourceAlpha" type="matrix" values="0 0 0 0 0 0 0 0 0 0 0 0 0 0 0 0 0 0 127 0" result="hardAlpha"/>
<feOffset/>
<feGaussianBlur stdDeviation="5"/>
<feColorMatrix type="matrix" values="0 0 0 0 0 0 0 0 0 0 0 0 0 0 0 0 0 0 0.25 0"/>
<feBlend mode="normal" in2="BackgroundImageFix" result="effect1_dropShadow_2008_3744"/>
<feBlend mode="normal" in="SourceGraphic" in2="effect1_dropShadow_2008_3744" result="shape"/>
</filter>
</defs>
</svg>
