<svg width="20" height="21" viewBox="0 0 20 21" fill="none" xmlns="http://www.w3.org/2000/svg">
<path d="M1.66663 3H6.66663C7.55068 3 8.39853 3.35119 9.02365 3.97631C9.64877 4.60143 9.99996 5.44928 9.99996 6.33333V18C9.99996 17.337 9.73657 16.7011 9.26773 16.2322C8.79888 15.7634 8.163 15.5 7.49996 15.5H1.66663V3Z" stroke="#262D33" stroke-width="2" stroke-linecap="round" stroke-linejoin="round"/>
<path d="M18.3333 3H13.3333C12.4493 3 11.6014 3.35119 10.9763 3.97631C10.3512 4.60143 10 5.44928 10 6.33333V18C10 17.337 10.2634 16.7011 10.7322 16.2322C11.2011 15.7634 11.837 15.5 12.5 15.5H18.3333V3Z" stroke="#262D33" stroke-width="2" stroke-linecap="round" stroke-linejoin="round"/>
</svg>
