<svg width="101" height="101" viewBox="0 0 101 101" fill="none" xmlns="http://www.w3.org/2000/svg">
<path d="M6 60V7C6 6.44771 6.44772 6 7 6H60C60.5523 6 61 6.44772 61 7V60C61 60.5523 60.5523 61 60 61H7C6.44772 61 6 60.5523 6 60Z" stroke="black" stroke-width="12" stroke-linejoin="round"/>
<path d="M40 74.4776V88C40 91.866 43.134 95 47 95H88C91.866 95 95 91.866 95 88V47C95 43.134 91.8654 40 87.9994 40C83.4513 40 79.2966 40 75.2985 40" stroke="black" stroke-width="12" stroke-linejoin="round"/>
</svg>
