<svg width="24" height="18" viewBox="0 0 24 18" fill="none" xmlns="http://www.w3.org/2000/svg">
<path d="M23.7694 14.8846C23.7694 16.329 22.5984 17.5 21.154 17.5H2.84634C1.402 17.5 0.230957 16.329 0.230957 14.8846V3.11538C0.230957 1.67104 1.402 0.5 2.84634 0.5H21.154C22.5984 0.5 23.7694 1.67104 23.7694 3.11538V14.8846Z" fill="#CCD6DD"/>
<path d="M8.04459 8.76266L0.647629 16.1596C0.629975 16.1779 0.623437 16.2008 0.608398 16.2191C0.830706 16.5918 1.14063 16.9011 1.51332 17.124C1.53228 17.109 1.55451 17.1025 1.57217 17.0848L8.96978 9.6872C9.22478 9.43155 9.22478 9.01832 8.96978 8.76266C8.71348 8.50701 8.30024 8.50701 8.04459 8.76266ZM23.3923 16.2191C23.3786 16.2008 23.3707 16.1779 23.3531 16.1603L15.9568 8.76266C15.7005 8.50701 15.2872 8.50701 15.0316 8.76266C14.7759 9.01897 14.7759 9.4322 15.0316 9.6872L22.4286 17.0848C22.4456 17.1018 22.4691 17.109 22.4874 17.124C22.8607 16.9017 23.17 16.5918 23.3923 16.2191Z" fill="#99AAB5"/>
<path d="M21.154 0.5H2.84634C1.402 0.5 0.230957 1.67104 0.230957 3.11538V3.78885L9.73003 13.267C10.9684 14.5047 12.9914 14.5047 14.2311 13.267L23.7694 3.77512V3.11538C23.7694 1.67104 22.5984 0.5 21.154 0.5Z" fill="#99AAB5"/>
<path d="M21.1539 0.5H2.84618C1.80787 0.5 0.91799 1.11069 0.495605 1.9875L10.1503 11.6428C11.1716 12.6642 12.8284 12.6642 13.8491 11.6428L23.5045 1.9875C23.0821 1.11069 22.1928 0.5 21.1539 0.5Z" fill="#E1E8ED"/>
<path d="M16.441 4.75L8 13.25" stroke="#EE6055" stroke-width="4" stroke-linecap="round" stroke-linejoin="round"/>
<path d="M7.99995 4.75L16.4409 13.25" stroke="#EE6055" stroke-width="4" stroke-linecap="round" stroke-linejoin="round"/>
</svg>
