<svg width="45" height="45" viewBox="0 0 45 45" fill="none" xmlns="http://www.w3.org/2000/svg">
<path d="M22.5 11.25C21.1094 11.25 19.7499 11.6624 18.5937 12.435C17.4374 13.2076 16.5362 14.3057 16.004 15.5905C15.4718 16.8753 15.3326 18.289 15.6039 19.653C15.8752 21.0169 16.5448 22.2698 17.5282 23.2531C18.5115 24.2364 19.7643 24.9061 21.1283 25.1774C22.4922 25.4487 23.906 25.3095 25.1907 24.7773C26.4755 24.2451 27.5737 23.3439 28.3463 22.1876C29.1189 21.0313 29.5313 19.6719 29.5313 18.2812C29.5313 16.4164 28.7905 14.628 27.4718 13.3094C26.1532 11.9908 24.3648 11.25 22.5 11.25ZM22.5 22.5C21.6656 22.5 20.85 22.2526 20.1562 21.789C19.4624 21.3254 18.9217 20.6666 18.6024 19.8957C18.2831 19.1248 18.1995 18.2766 18.3623 17.4582C18.5251 16.6399 18.9269 15.8881 19.5169 15.2981C20.1069 14.7081 20.8586 14.3063 21.677 14.1436C22.4953 13.9808 23.3436 14.0643 24.1145 14.3836C24.8853 14.7029 25.5442 15.2437 26.0078 15.9374C26.4713 16.6312 26.7188 17.4469 26.7188 18.2812C26.7176 19.3998 26.2728 20.4722 25.4819 21.2631C24.691 22.0541 23.6185 22.4989 22.5 22.5Z" fill="black"/>
<path d="M22.5 2.8125C18.6062 2.8125 14.7998 3.96715 11.5622 6.13044C8.32463 8.29373 5.80123 11.3685 4.31113 14.9659C2.82103 18.5633 2.43115 22.5218 3.1908 26.3408C3.95045 30.1598 5.8255 33.6678 8.57884 36.4212C11.3322 39.1745 14.8402 41.0496 18.6592 41.8092C22.4782 42.5689 26.4367 42.179 30.0341 40.6889C33.6315 39.1988 36.7063 36.6754 38.8696 33.4378C41.0329 30.2002 42.1875 26.3938 42.1875 22.5C42.1816 17.2804 40.1054 12.2762 36.4146 8.58541C32.7238 4.89458 27.7196 2.81846 22.5 2.8125V2.8125ZM14.0625 37.0927V35.1562C14.0636 34.0377 14.5085 32.9653 15.2994 32.1744C16.0903 31.3834 17.1627 30.9386 18.2813 30.9375H26.7188C27.8373 30.9386 28.9097 31.3834 29.7006 32.1744C30.4916 32.9653 30.9364 34.0377 30.9375 35.1562V37.0927C28.377 38.5878 25.4651 39.3757 22.5 39.3757C19.5349 39.3757 16.6231 38.5878 14.0625 37.0927V37.0927ZM33.7388 35.0522C33.7107 33.2077 32.9592 31.448 31.6461 30.1522C30.333 28.8565 28.5635 28.1285 26.7188 28.125H18.2813C16.4365 28.1285 14.667 28.8565 13.3539 30.1522C12.0408 31.448 11.2893 33.2077 11.2613 35.0522C8.71111 32.7751 6.91275 29.7772 6.10431 26.4553C5.29586 23.1335 5.51546 19.6444 6.73403 16.4501C7.9526 13.2558 10.1127 10.507 12.9282 8.56767C15.7437 6.62831 19.0819 5.58988 22.5007 5.58988C25.9195 5.58988 29.2577 6.62831 32.0732 8.56767C34.8888 10.507 37.0488 13.2558 38.2674 16.4501C39.486 19.6444 39.7056 23.1335 38.8971 26.4553C38.0887 29.7772 36.2903 32.7751 33.7402 35.0522H33.7388Z" fill="black"/>
</svg>
