<svg width="25" height="25" viewBox="0 0 25 25" fill="none" xmlns="http://www.w3.org/2000/svg">
<path d="M5.9375 24.5C5.69997 24.4999 5.47132 24.4097 5.29776 24.2475C5.1242 24.0854 5.01866 23.8634 5.00247 23.6264C4.98628 23.3894 5.06064 23.1551 5.21054 22.9709C5.36044 22.7866 5.57469 22.6661 5.81 22.6338L5.9375 22.625H8.12375V19.5025H2.8125C2.09984 19.5026 1.41372 19.2321 0.892808 18.7458C0.371893 18.2594 0.0550276 17.5935 0.00625016 16.8825L2.12484e-08 16.69V3.5625C-8.75273e-05 2.84984 0.270369 2.16372 0.756712 1.64281C1.24305 1.12189 1.90901 0.805028 2.62 0.75625L2.8125 0.75H22.1863C22.8989 0.749912 23.585 1.02037 24.1059 1.50671C24.6269 1.99305 24.9437 2.65901 24.9925 3.37L24.9988 3.5625V16.69C24.9988 17.4027 24.7284 18.0888 24.242 18.6097C23.7557 19.1306 23.0897 19.4475 22.3787 19.4963L22.1863 19.5025H16.8737V22.625H19.0625C19.3017 22.6226 19.5328 22.7117 19.7085 22.8741C19.8841 23.0365 19.9911 23.2599 20.0074 23.4986C20.0237 23.7373 19.9481 23.9732 19.7961 24.1579C19.6442 24.3427 19.4273 24.4624 19.19 24.4925L19.0625 24.5H5.9375ZM14.9975 19.5025H9.9975L9.99875 22.625H14.9987L14.9975 19.5025Z" fill="black"/>
</svg>
