<svg width="21" height="20" viewBox="0 0 21 20" fill="none" xmlns="http://www.w3.org/2000/svg">
<path d="M15.9559 17.7778C15.9559 19.005 14.9609 20 13.7337 20H2.62261C1.39539 20 0.400391 18.9583 0.400391 15.5556V2.22222C0.400391 0.995 1.39539 0 2.62261 0H13.7337C14.9609 0 15.9559 0.995 15.9559 2.22222V17.7778Z" fill="#CCD6DD"/>
<path d="M17.623 19.9992H2.62305C4.84527 19.9992 4.84527 15.5547 4.84527 15.5547C4.84527 14.3275 5.84027 13.3325 7.06749 13.3325H18.1786C19.4058 13.3325 20.4008 14.4436 20.4008 15.5547C20.4008 15.5547 20.5397 19.9992 17.623 19.9992Z" fill="#E1E8ED"/>
<path d="M13.7342 3.88808C13.7342 4.19474 13.4858 4.44363 13.1786 4.44363H3.1786C2.87194 4.44363 2.62305 4.19474 2.62305 3.88808C2.62305 3.58141 2.87194 3.33252 3.1786 3.33252H13.1786C13.4858 3.33252 13.7342 3.58141 13.7342 3.88808ZM13.7342 6.1103C13.7342 6.41696 13.4858 6.66585 13.1786 6.66585H3.1786C2.87194 6.66585 2.62305 6.41696 2.62305 6.1103C2.62305 5.80363 2.87194 5.55474 3.1786 5.55474H13.1786C13.4858 5.55474 13.7342 5.80363 13.7342 6.1103ZM13.7342 8.33252C13.7342 8.63919 13.4858 8.88807 13.1786 8.88807H3.1786C2.87194 8.88807 2.62305 8.63919 2.62305 8.33252C2.62305 8.02585 2.87194 7.77696 3.1786 7.77696H13.1786C13.4858 7.77696 13.7342 8.02585 13.7342 8.33252ZM13.7342 10.5547C13.7342 10.862 13.4858 11.1103 13.1786 11.1103H3.1786C2.87194 11.1103 2.62305 10.862 2.62305 10.5547C2.62305 10.2475 2.87194 9.99919 3.1786 9.99919H13.1786C13.4858 9.99919 13.7342 10.2475 13.7342 10.5547Z" fill="#99AAB5"/>
</svg>
