<svg width="20" height="21" viewBox="0 0 20 21" fill="none" xmlns="http://www.w3.org/2000/svg">
<path d="M15.8087 9.66656H18.3337C17.942 5.4999 15.0003 2.55823 10.8337 2.16656V4.73323C13.3337 5.09156 15.4503 7.16656 15.8087 9.66656Z" fill="#262D33"/>
<path d="M9.16699 4.73323V2.16656C5.00033 2.58323 1.66699 6.1749 1.66699 10.4999C1.66699 14.8249 5.00033 18.4166 9.16699 18.8332H10.8337C15.0003 18.4166 17.942 15.4999 18.3337 11.3332H15.8087C15.4503 13.8332 13.3337 15.9166 10.8337 16.2666C10.1944 16.3932 9.82882 16.3857 9.16699 16.2666C6.66699 15.9166 4.16699 13.4332 4.16699 10.4999C4.16699 7.56656 6.66699 5.13323 9.16699 4.73323Z" fill="#262D33"/>
</svg>
