<svg width="21" height="20" viewBox="0 0 21 20" fill="none" xmlns="http://www.w3.org/2000/svg">
<path d="M18.1471 0H2.85294C1.55353 0 0.5 1.05353 0.5 2.35294V17.6471C0.5 18.9465 1.55353 20 2.85294 20H18.1471C19.4465 20 20.5 18.9465 20.5 17.6471V2.35294C20.5 1.05353 19.4465 0 18.1471 0ZM18.1471 1.17647C18.7959 1.17647 19.3235 1.70412 19.3235 2.35294V4.70588H15.7941V1.17647H18.1471ZM15.7941 10.5882H19.3235V14.1176H15.7941V10.5882ZM15.7941 9.41177V5.88235H19.3235V9.41177H15.7941ZM14.6176 1.17647V4.70588H11.0882V1.17647H14.6176ZM11.0882 5.88235H14.6176V9.41177H11.0882V5.88235ZM11.0882 10.5882H14.6176V14.1176H11.0882V10.5882ZM9.91177 1.17647V4.70588H6.38235V1.17647H9.91177ZM6.38235 5.88235H9.91177V9.41177H6.38235V5.88235ZM6.38235 10.5882H9.91177V14.1176H6.38235V10.5882ZM1.67647 2.35294C1.67647 1.70412 2.20412 1.17647 2.85294 1.17647H5.20588V4.70588H1.67647V2.35294ZM1.67647 5.88235H5.20588V9.41177H1.67647V5.88235ZM1.67647 10.5882H5.20588V14.1176H1.67647V10.5882ZM2.85294 18.8235C2.20412 18.8235 1.67647 18.2959 1.67647 17.6471V15.2941H5.20588V18.8235H2.85294ZM6.38235 18.8235V15.2941H9.91177V18.8235H6.38235ZM11.0882 18.8235V15.2941H14.6176V18.8235H11.0882ZM18.1471 18.8235H15.7941V15.2941H19.3235V17.6471C19.3235 18.2959 18.7959 18.8235 18.1471 18.8235Z" fill="#E1E8ED"/>
</svg>
