<svg width="21" height="20" viewBox="0 0 21 20" fill="none" xmlns="http://www.w3.org/2000/svg">
<g clip-path="url(#clip0_2197_3675)">
<path d="M4.46531 16.677C3.53405 15.8353 2.78915 14.8082 2.27848 13.6615C1.7678 12.5148 1.50263 11.274 1.50002 10.0187C1.49741 8.76349 1.7574 7.52157 2.2633 6.37278C2.7692 5.22398 3.50981 4.19372 4.43756 3.34817" stroke="#7470FF" stroke-width="2"/>
<path d="M16.5347 16.677C17.4659 15.8353 18.2108 14.8082 18.7215 13.6615C19.2322 12.5148 19.4974 11.274 19.5 10.0187C19.5026 8.76349 19.2426 7.52157 18.7367 6.37278C18.2308 5.22398 17.4902 4.19372 16.5624 3.34817" stroke="#7470FF" stroke-width="2"/>
<path d="M6.88121 14.3603C6.25212 13.8381 5.74349 13.1859 5.39023 12.4486C5.03697 11.7112 4.84745 10.9062 4.83468 10.0887C4.8219 9.2712 4.98618 8.46062 5.31623 7.71261C5.64628 6.9646 6.13429 6.29686 6.74675 5.75524" stroke="#7470FF" stroke-width="2"/>
<path d="M14.1188 14.3603C14.7479 13.8381 15.2565 13.1859 15.6098 12.4486C15.963 11.7112 16.1526 10.9062 16.1653 10.0887C16.1781 9.2712 16.0138 8.46062 15.6838 7.71261C15.3537 6.9646 14.8657 6.29686 14.2532 5.75524" stroke="#7470FF" stroke-width="2"/>
<circle cx="10.4993" cy="9.99984" r="2.33333" stroke="#7470FF" stroke-width="2"/>
</g>
<defs>
<clipPath id="clip0_2197_3675">
<rect width="20" height="20" fill="white" transform="translate(0.5)"/>
</clipPath>
</defs>
</svg>
