<svg width="300" height="222" viewBox="0 0 300 222" fill="none" xmlns="http://www.w3.org/2000/svg">
<g clip-path="url(#clip0_362_5212)">
<path opacity="0.1" d="M3.22949 106.805C7.96668 125.113 17.9865 140.939 33.8208 148.61C66.7384 164.554 140.976 156.331 196.382 146.892C225.043 142.01 250.234 128.538 268.534 109.578L3.22949 106.805Z" fill="#EE6055"/>
<path opacity="0.1" d="M293.777 20.6267H263.376C261.934 20.6267 260.75 19.5576 260.75 18.2513C260.75 16.9449 261.934 15.8731 263.376 15.8731H268.635C267.189 15.8731 266.008 14.8041 266.008 13.495C266.008 12.1859 267.189 11.1196 268.635 11.1196H264.882C263.436 11.1196 262.253 10.0505 262.253 8.74144C262.253 7.43237 263.436 6.36603 264.882 6.36603H280.749C277.228 4.88515 273.113 3.83244 268.37 3.27881C225.103 -1.74746 209.656 1.57702 204.207 4.99423C197.415 9.30664 189.87 12.2989 181.969 13.8141C155.275 18.7967 105.353 24.7911 60.1057 11.905C37.617 5.48786 20.9019 16.3177 10.8848 34.421H299.057C298.68 29.1602 297.554 24.3002 295.487 20.0485C294.997 20.4265 294.395 20.63 293.777 20.6267Z" fill="#EE6055"/>
<path opacity="0.1" d="M0.652286 68.5898C-0.515386 79.2374 -0.11846 89.9985 1.83045 100.531L268.738 109.365C276.086 101.744 282.328 93.1316 287.283 83.7778L0.652286 68.5898ZM106.218 91.3758H100.962C102.408 91.3758 103.591 92.4476 103.591 93.7539C103.591 95.0603 102.408 96.1294 100.962 96.1294H70.5619C69.1192 96.1294 67.9356 95.0603 67.9356 93.7539C67.9356 92.4476 69.1192 91.3758 70.5619 91.3758H75.82C74.3746 91.3758 73.1937 90.3067 73.1937 89.0004C73.1937 87.694 74.3746 86.6222 75.82 86.6222H72.0646C70.6192 86.6222 69.4356 85.5532 69.4356 84.2468C69.4356 82.9405 70.6192 81.8687 72.0646 81.8687H102.465C103.91 81.8687 105.091 82.9378 105.091 84.2468C105.091 85.5559 103.91 86.6222 102.465 86.6222H106.218C107.663 86.6222 108.844 87.6913 108.844 89.0004C108.844 90.3095 107.663 91.3758 106.218 91.3758Z" fill="#EE6055"/>
<path opacity="0.1" d="M299.068 34.585L7.66939 40.9939C4.124 49.2383 1.77314 58.56 0.69043 68.2198H293.962C295.871 62.5682 297.287 56.7622 298.195 50.8665C299.071 45.1911 299.42 39.7012 299.068 34.585ZM59.8548 55.5982H54.5995C56.0449 55.5982 57.2285 56.67 57.2285 57.9764C57.2285 59.2827 56.0449 60.3545 54.5995 60.3545H24.1991C22.7564 60.3545 21.5728 59.2827 21.5728 57.9764C21.5728 56.67 22.7564 55.5982 24.1991 55.5982H29.4572C28.0118 55.5982 26.8309 54.5292 26.8309 53.2228C26.8309 51.9165 28.0118 50.8447 29.4572 50.8447H25.7018C24.2564 50.8447 23.0728 49.7756 23.0728 48.4693C23.0728 47.1629 24.2564 46.0911 25.7018 46.0911H56.1022C57.5476 46.0911 58.7285 47.1602 58.7285 48.4693C58.7285 49.7783 57.5476 50.8447 56.1022 50.8447H59.8548C61.3002 50.8447 62.4811 51.9165 62.4811 53.2228C62.4811 54.5292 61.3002 55.5982 59.8548 55.5982Z" fill="#EE6055"/>
<path opacity="0.1" d="M148.655 213.729C215.98 213.729 270.557 208.708 270.557 202.514C270.557 196.321 215.98 191.3 148.655 191.3C81.331 191.3 26.7539 196.321 26.7539 202.514C26.7539 208.708 81.331 213.729 148.655 213.729Z" fill="#EE6055"/>
<path opacity="0.1" d="M240.476 96.583C240.476 96.583 244.313 96.8285 244.337 97.3739C244.362 97.9194 240.476 96.583 240.476 96.583Z" fill="black"/>
<path opacity="0.1" d="M231.154 94.2559C231.154 94.2559 227.317 94.5013 227.292 95.0468C227.268 95.5922 231.154 94.2559 231.154 94.2559Z" fill="black"/>
<path opacity="0.1" d="M245.818 105.408C245.78 105.38 245.741 105.359 245.703 105.334C246.685 106.218 246.521 108.148 245.316 109.741C244.111 111.334 242.281 111.997 241.168 111.282C241.203 111.312 241.233 111.345 241.272 111.375C242.362 112.209 244.272 111.555 245.532 109.908C246.791 108.26 246.914 106.245 245.818 105.408Z" fill="black"/>
<path opacity="0.1" d="M224.74 109.537C223.769 107.786 223.895 105.853 224.994 105.119C224.953 105.138 224.909 105.155 224.868 105.176C223.663 105.847 223.505 107.857 224.503 109.668C225.501 111.479 227.301 112.395 228.506 111.735C228.546 111.712 228.585 111.687 228.621 111.659C227.418 112.204 225.711 111.288 224.74 109.537Z" fill="black"/>
<path opacity="0.1" d="M226.038 94.7715L225.686 95.317L224.789 94.8397L225.261 94.1143C225.573 94.2618 225.841 94.4884 226.038 94.7715Z" fill="black"/>
<path d="M220.337 114.956C220.337 114.956 221.137 111.198 220.065 110.004C218.993 108.809 219.337 102.547 220.973 102.684C222.609 102.82 225.064 107.773 224.655 108.82C224.246 109.867 222.699 115.229 222.699 115.229L220.337 114.956Z" fill="#FBBEBE"/>
<path opacity="0.1" d="M245.998 87.8414C245.809 88.1765 245.532 88.453 245.196 88.6405C244.855 88.7968 244.479 88.8643 244.105 88.8369C243.737 88.839 243.373 88.7599 243.039 88.605C242.131 88.1523 241.792 87.0669 241.367 86.1505C241.313 85.9852 241.217 85.8368 241.089 85.7196C240.868 85.6192 240.63 85.5609 240.388 85.5478C239.878 85.4333 239.51 84.9887 239.275 84.5251C239.041 84.0615 238.902 83.5488 238.634 83.1042C238.367 82.6597 237.914 82.2697 237.393 82.2861C237.054 82.331 236.724 82.4276 236.414 82.5724C235.973 82.714 235.503 82.7418 235.048 82.6531C234.593 82.5644 234.168 82.3622 233.813 82.0652C233.594 81.8272 233.333 81.6312 233.043 81.487C232.846 81.4292 232.64 81.408 232.435 81.4243C232.122 81.4243 231.811 81.4543 231.497 81.4788C231.342 81.6825 231.175 81.8774 230.998 82.0624C231.475 82.0215 231.955 81.9806 232.435 81.9697C232.64 81.9534 232.846 81.9747 233.043 82.0324C233.333 82.1767 233.594 82.3726 233.813 82.6106C234.168 82.9076 234.593 83.1098 235.048 83.1985C235.503 83.2872 235.973 83.2595 236.414 83.1179C236.724 82.973 237.054 82.8764 237.393 82.8315C237.914 82.8315 238.364 83.2133 238.634 83.6497C238.904 84.086 239.043 84.6042 239.275 85.0706C239.507 85.5369 239.878 85.9787 240.388 86.0933C240.63 86.1064 240.868 86.1646 241.089 86.2651C241.226 86.3766 241.331 86.5224 241.394 86.6878C241.82 87.6069 242.158 88.6923 243.066 89.1423C243.4 89.2971 243.764 89.3763 244.132 89.3741C244.507 89.4016 244.882 89.3341 245.223 89.1778C245.559 88.9903 245.836 88.7138 246.025 88.3787C246.448 87.6078 246.638 86.7302 246.57 85.8533C246.55 86.5536 246.353 87.2374 245.998 87.8414Z" fill="black"/>
<path d="M221.546 117.938C222.902 117.938 224.001 117.193 224.001 116.274C224.001 115.355 222.902 114.61 221.546 114.61C220.191 114.61 219.092 115.355 219.092 116.274C219.092 117.193 220.191 117.938 221.546 117.938Z" fill="#575A89"/>
<path d="M141.54 208.876C188.006 208.876 225.675 171.208 225.675 124.741C225.675 78.2749 188.006 40.6064 141.54 40.6064C95.0737 40.6064 57.4053 78.2749 57.4053 124.741C57.4053 171.208 95.0737 208.876 141.54 208.876Z" fill="#EE6055"/>
<path d="M185.686 167.021C185.686 180.303 164.806 168.156 142.421 168.156C120.036 168.156 97.3945 179.801 97.3945 166.519C97.3945 158.946 104.611 148.413 114.963 140.764C122.763 134.998 132.341 130.869 141.963 130.869C151.857 130.869 161.55 135.339 169.281 141.475C179.039 149.212 185.686 159.609 185.686 167.021Z" fill="#444053"/>
<path d="M169.278 141.47C157.379 139.679 135.859 137.494 114.963 140.759C122.763 134.993 132.341 130.864 141.962 130.864C151.854 130.864 161.547 135.334 169.278 141.47Z" fill="#F6F8FB"/>
<path opacity="0.05" d="M97.394 65.3506C97.394 65.3506 72.0499 81.553 72.2571 106.897C72.4644 132.241 97.394 65.3506 97.394 65.3506Z" fill="black"/>
<path d="M225.642 19.5903C225.642 19.5903 202.679 18.2076 205.387 34.2982C205.387 34.2982 204.842 37.14 207.427 38.4327C207.427 38.4327 207.468 37.2409 209.781 37.6445C210.605 37.7824 211.442 37.8227 212.276 37.7645C213.402 37.6879 214.473 37.2455 215.325 36.5045C215.325 36.5045 221.78 33.84 224.292 23.2884C224.292 23.2884 226.149 20.9866 226.076 20.3975L222.2 22.0502C222.2 22.0502 223.523 24.8456 222.473 27.1692C222.473 27.1692 222.348 22.1539 221.603 22.2602C221.453 22.2848 219.59 23.2284 219.59 23.2284C219.59 23.2284 221.868 28.0992 220.136 31.6364C220.136 31.6364 220.788 25.6365 218.865 23.5802L216.138 25.1729C216.138 25.1729 218.8 30.2019 216.994 34.3064C216.994 34.3064 217.458 28.012 215.565 25.5602L213.091 27.4883C213.091 27.4883 215.592 32.4464 214.068 35.85C214.068 35.85 213.869 28.5219 212.557 27.9683C212.557 27.9683 210.394 29.8774 210.064 30.6601C210.064 30.6601 211.777 34.2573 210.716 36.1554C210.716 36.1554 210.064 31.2737 209.53 31.2464C209.53 31.2464 207.375 34.4809 207.149 36.7009C207.149 36.7009 207.244 33.4009 209.006 30.9383C209.006 30.9383 206.922 31.2955 205.709 32.6482C205.709 32.6482 206.044 30.3601 209.527 30.161C209.527 30.161 211.308 27.7065 211.785 27.5592C211.785 27.5592 208.308 27.2674 206.2 28.2029C206.2 28.2029 208.054 26.0456 212.421 27.0247L214.875 25.0338C214.875 25.0338 210.299 24.4066 208.357 25.0993C208.357 25.0993 210.591 23.1902 215.532 24.5811L218.191 22.9911C218.191 22.9911 214.289 22.1512 211.962 22.4457C211.962 22.4457 214.417 21.123 218.969 22.5575L220.878 21.7039C220.878 21.7039 218.017 21.1421 217.18 21.0548C216.342 20.9675 216.299 20.733 216.299 20.733C218.115 20.4376 219.979 20.6539 221.679 21.3575C221.679 21.3575 225.71 19.8439 225.642 19.5903Z" fill="#EE6055"/>
<path d="M202.09 12.4374C202.09 12.4374 191.726 11.8101 192.937 19.0809C192.937 19.0809 192.695 20.3655 193.859 20.9491C193.859 20.9491 193.875 20.4036 194.923 20.5945C195.295 20.6558 195.673 20.6741 196.049 20.6491C196.558 20.6127 197.042 20.4128 197.429 20.0791C197.429 20.0791 200.344 18.8737 201.479 14.1065C201.479 14.1065 202.319 13.0674 202.297 12.8001L200.546 13.5474C200.546 13.5474 201.146 14.8101 200.674 15.8601C200.674 15.8601 200.617 13.5938 200.282 13.6483C200.213 13.6483 199.371 14.0847 199.371 14.0847C199.371 14.0847 200.402 16.2855 199.624 17.8837C199.624 17.8837 199.919 15.1728 199.052 14.2428L197.819 14.9628C197.819 14.9628 199.022 17.2373 198.206 19.0918C198.206 19.0918 198.414 16.2473 197.56 15.1401L196.442 16.0101C196.442 16.0101 197.571 18.2491 196.884 19.7873C196.884 19.7873 196.794 16.4764 196.199 16.2255C196.199 16.2255 195.223 17.0873 195.073 17.4419C195.073 17.4419 195.847 19.0782 195.367 19.9264C195.367 19.9264 195.073 17.72 194.822 17.7119C194.822 17.7119 193.848 19.1709 193.747 20.1664C193.794 19.24 194.083 18.3421 194.585 17.5619C194.023 17.668 193.506 17.9364 193.095 18.3337C193.095 18.3337 193.245 17.3001 194.825 17.2101C194.825 17.2101 195.629 16.1028 195.844 16.0346C195.844 16.0346 194.274 15.9037 193.322 16.3264C193.322 16.3264 194.159 15.3501 196.134 15.781L197.224 14.8837C197.224 14.8837 195.157 14.611 194.279 14.911C194.279 14.911 195.288 14.0492 197.522 14.6792L198.722 13.9592C198.722 13.9592 196.96 13.5801 195.907 13.7165C195.907 13.7165 197.017 13.1192 199.074 13.7683L199.933 13.381C199.933 13.381 198.64 13.1274 198.264 13.0892C197.887 13.051 197.863 12.9447 197.863 12.9447C198.681 12.8085 199.522 12.9029 200.29 13.2174C200.29 13.2174 202.12 12.552 202.09 12.4374Z" fill="#EE6055"/>
<path opacity="0.1" d="M292.656 199.8C296.712 199.8 300 199.245 300 198.559C300 197.874 296.712 197.318 292.656 197.318C288.6 197.318 285.312 197.874 285.312 198.559C285.312 199.245 288.6 199.8 292.656 199.8Z" fill="#EE6055"/>
<path opacity="0.1" d="M12.7555 220.443C16.8117 220.443 20.1 219.887 20.1 219.202C20.1 218.517 16.8117 217.961 12.7555 217.961C8.69934 217.961 5.41113 218.517 5.41113 219.202C5.41113 219.887 8.69934 220.443 12.7555 220.443Z" fill="#EE6055"/>
<path opacity="0.1" d="M55.3903 222C59.4465 222 62.7347 221.445 62.7347 220.759C62.7347 220.074 59.4465 219.519 55.3903 219.519C51.3341 219.519 48.0459 220.074 48.0459 220.759C48.0459 221.445 51.3341 222 55.3903 222Z" fill="#EE6055"/>
<path d="M276.581 213.712C282.638 213.712 287.548 212.882 287.548 211.857C287.548 210.833 282.638 210.003 276.581 210.003C270.525 210.003 265.615 210.833 265.615 211.857C265.615 212.882 270.525 213.712 276.581 213.712Z" fill="#EE6055"/>
<path d="M281.114 208.827C281.614 208.419 281.979 207.868 282.161 207.248C282.295 206.623 282.027 205.871 281.43 205.642C280.759 205.385 280.042 205.852 279.499 206.321C278.956 206.79 278.332 207.324 277.62 207.226C277.986 206.895 278.26 206.474 278.415 206.005C278.57 205.536 278.6 205.035 278.504 204.551C278.473 204.35 278.388 204.162 278.258 204.005C277.885 203.607 277.211 203.776 276.764 204.09C275.346 205.088 274.95 207.013 274.942 208.748C274.8 208.123 274.92 207.472 274.917 206.839C274.915 206.206 274.737 205.475 274.197 205.14C273.862 204.961 273.486 204.872 273.107 204.883C272.468 204.859 271.759 204.922 271.323 205.388C270.777 205.969 270.922 206.94 271.394 207.57C271.866 208.2 272.58 208.609 273.237 209.048C273.766 209.362 274.218 209.792 274.557 210.305C274.597 210.377 274.63 210.453 274.656 210.532H278.651C279.545 210.077 280.373 209.504 281.114 208.827Z" fill="#EE6055"/>
<path d="M16.1829 185.96C16.1829 185.96 17.6802 187.918 15.4902 190.869C13.3002 193.82 11.4948 196.323 12.2175 198.167C12.2175 198.167 15.5202 192.674 18.2174 192.595C20.9146 192.516 19.1392 189.263 16.1829 185.96Z" fill="#EE6055"/>
<path opacity="0.1" d="M16.1835 185.96C16.3136 186.149 16.4164 186.356 16.489 186.574C19.1126 189.655 20.5089 192.533 17.989 192.603C15.6381 192.672 12.8072 196.872 12.1445 197.932C12.1677 198.015 12.195 198.096 12.2263 198.175C12.2263 198.175 15.529 192.683 18.2262 192.603C20.9235 192.524 19.1399 189.263 16.1835 185.96Z" fill="black"/>
<path d="M18.9675 188.454C18.9675 189.144 18.8884 189.704 18.7929 189.704C18.6975 189.704 18.6211 189.158 18.6211 188.454C18.6211 187.751 18.7165 188.089 18.8147 188.089C18.9129 188.089 18.9675 187.765 18.9675 188.454Z" fill="#FFD037"/>
<path d="M19.9119 189.278C19.3064 189.608 18.7801 189.807 18.7337 189.723C18.6874 189.638 19.1428 189.305 19.7482 188.975C20.3537 188.645 20.1137 188.885 20.1601 188.975C20.2064 189.065 20.5282 188.948 19.9119 189.278Z" fill="#FFD037"/>
<path d="M8.26896 185.96C8.26896 185.96 6.77172 187.918 8.95895 190.869C11.1462 193.82 12.9543 196.323 12.2316 198.167C12.2316 198.167 8.92622 192.674 6.23173 192.595C3.53723 192.516 5.30993 189.263 8.26896 185.96Z" fill="#EE6055"/>
<path opacity="0.1" d="M8.26901 185.96C8.13779 186.149 8.03489 186.355 7.96356 186.574C5.33997 189.655 3.94091 192.533 6.46359 192.603C8.81173 192.672 11.6453 196.872 12.3053 197.932C12.2831 198.015 12.2567 198.096 12.2262 198.175C12.2262 198.175 8.92081 192.683 6.22632 192.603C3.53182 192.524 5.30997 189.263 8.26901 185.96Z" fill="black"/>
<path d="M5.48438 188.454C5.48438 189.144 5.56074 189.704 5.65619 189.704C5.75164 189.704 5.828 189.158 5.828 188.454C5.828 187.751 5.73255 188.089 5.6371 188.089C5.54165 188.089 5.48438 187.765 5.48438 188.454Z" fill="#FFD037"/>
<path d="M4.52699 189.278C5.13243 189.608 5.66151 189.807 5.70788 189.723C5.75424 189.638 5.29879 189.305 4.69335 188.975C4.08791 188.645 4.32518 188.885 4.28154 188.975C4.2379 189.065 3.92155 188.948 4.52699 189.278Z" fill="#FFD037"/>
<path d="M5.96191 197.918C5.96191 197.918 10.1509 197.79 11.4164 196.89C12.6818 195.99 17.8608 194.918 18.1744 196.344C18.488 197.771 24.4688 203.517 19.7398 203.555C15.0108 203.593 8.75186 202.816 7.49189 202.05C6.23191 201.283 5.96191 197.918 5.96191 197.918Z" fill="#A8A8A8"/>
<path opacity="0.2" d="M19.8189 203.068C15.0899 203.106 8.83095 202.329 7.57098 201.562C6.61099 200.979 6.22918 198.881 6.101 197.913H5.96191C5.96191 197.913 6.23464 201.292 7.48643 202.059C8.73823 202.825 15.0054 203.602 19.7344 203.564C21.098 203.564 21.5698 203.065 21.5453 202.348C21.3544 202.787 20.8362 203.059 19.8189 203.068Z" fill="black"/>
<path d="M111.628 113.709C113.229 113.619 120.765 113.052 125.551 110.322C126.32 109.87 127.188 109.614 128.079 109.578C129.601 109.534 131.352 110.169 130.231 113.726C128.414 119.543 117.868 126.088 111.323 125.726C105.028 125.376 97.5614 122.84 92.6305 113.922C92.1581 113.064 91.9254 112.095 91.9569 111.116C92.0142 109.316 92.6687 107.06 96.0478 109.575C100.613 112.97 109.275 113.614 111.012 113.709C111.217 113.72 111.423 113.72 111.628 113.709Z" fill="#444053"/>
<path d="M172.172 113.709C173.773 113.619 181.308 113.052 186.095 110.322C186.863 109.87 187.732 109.614 188.623 109.578C190.145 109.534 191.896 110.169 190.775 113.726C188.958 119.543 178.412 126.088 171.867 125.726C165.572 125.376 158.105 122.84 153.175 113.922C152.702 113.064 152.469 112.095 152.501 111.116C152.558 109.316 153.213 107.06 156.592 109.575C161.157 112.97 169.819 113.614 171.556 113.709C171.761 113.72 171.967 113.72 172.172 113.709Z" fill="#444053"/>
</g>
<defs>
<clipPath id="clip0_362_5212">
<rect width="300" height="221.29" fill="white" transform="translate(0 0.709961)"/>
</clipPath>
</defs>
</svg>
