<svg width="1780" height="87" viewBox="0 0 1780 87" fill="none" xmlns="http://www.w3.org/2000/svg">
<path d="M52.5 48.5L47.5 43.5L52.5 38.5" stroke="#262D33" stroke-width="2" stroke-linecap="round" stroke-linejoin="round"/>
<path d="M72.5 41.0001L80 35.1667L87.5 41.0001V50.1668C87.5 50.6088 87.3244 51.0327 87.0118 51.3453C86.6993 51.6578 86.2754 51.8334 85.8333 51.8334H74.1667C73.7246 51.8334 73.3007 51.6578 72.9882 51.3453C72.6756 51.0327 72.5 50.6088 72.5 50.1668V41.0001Z" stroke="#262D33" stroke-width="2" stroke-linecap="round" stroke-linejoin="round"/>
<path d="M77.5 51.8333V43.5H82.5V51.8333" stroke="#262D33" stroke-width="2" stroke-linecap="round" stroke-linejoin="round"/>
<path d="M770.134 37.436C771.454 37.436 772.612 37.694 773.608 38.21C774.616 38.726 775.39 39.464 775.93 40.424C776.482 41.372 776.758 42.476 776.758 43.736C776.758 44.996 776.482 46.1 775.93 47.048C775.39 47.984 774.616 48.71 773.608 49.226C772.612 49.742 771.454 50 770.134 50H765.742V37.436H770.134ZM770.044 47.858C771.364 47.858 772.384 47.498 773.104 46.778C773.824 46.058 774.184 45.044 774.184 43.736C774.184 42.428 773.824 41.408 773.104 40.676C772.384 39.932 771.364 39.56 770.044 39.56H768.262V47.858H770.044ZM779.922 38.84C779.478 38.84 779.106 38.702 778.806 38.426C778.518 38.138 778.374 37.784 778.374 37.364C778.374 36.944 778.518 36.596 778.806 36.32C779.106 36.032 779.478 35.888 779.922 35.888C780.366 35.888 780.732 36.032 781.02 36.32C781.32 36.596 781.47 36.944 781.47 37.364C781.47 37.784 781.32 38.138 781.02 38.426C780.732 38.702 780.366 38.84 779.922 38.84ZM781.164 40.028V50H778.644V40.028H781.164ZM787.47 50.162C786.654 50.162 785.922 50.018 785.274 49.73C784.626 49.43 784.11 49.028 783.726 48.524C783.354 48.02 783.15 47.462 783.114 46.85H785.652C785.7 47.234 785.886 47.552 786.21 47.804C786.546 48.056 786.96 48.182 787.452 48.182C787.932 48.182 788.304 48.086 788.568 47.894C788.844 47.702 788.982 47.456 788.982 47.156C788.982 46.832 788.814 46.592 788.478 46.436C788.154 46.268 787.632 46.088 786.912 45.896C786.168 45.716 785.556 45.53 785.076 45.338C784.608 45.146 784.2 44.852 783.852 44.456C783.516 44.06 783.348 43.526 783.348 42.854C783.348 42.302 783.504 41.798 783.816 41.342C784.14 40.886 784.596 40.526 785.184 40.262C785.784 39.998 786.486 39.866 787.29 39.866C788.478 39.866 789.426 40.166 790.134 40.766C790.842 41.354 791.232 42.152 791.304 43.16H788.892C788.856 42.764 788.688 42.452 788.388 42.224C788.1 41.984 787.71 41.864 787.218 41.864C786.762 41.864 786.408 41.948 786.156 42.116C785.916 42.284 785.796 42.518 785.796 42.818C785.796 43.154 785.964 43.412 786.3 43.592C786.636 43.76 787.158 43.934 787.866 44.114C788.586 44.294 789.18 44.48 789.648 44.672C790.116 44.864 790.518 45.164 790.854 45.572C791.202 45.968 791.382 46.496 791.394 47.156C791.394 47.732 791.232 48.248 790.908 48.704C790.596 49.16 790.14 49.52 789.54 49.784C788.952 50.036 788.262 50.162 787.47 50.162ZM796.397 42.098V46.922C796.397 47.258 796.475 47.504 796.631 47.66C796.799 47.804 797.075 47.876 797.459 47.876H798.629V50H797.045C794.921 50 793.859 48.968 793.859 46.904V42.098H792.671V40.028H793.859V37.562H796.397V40.028H798.629V42.098H796.397ZM802.961 41.576C803.285 41.048 803.705 40.634 804.221 40.334C804.749 40.034 805.349 39.884 806.021 39.884V42.53H805.355C804.563 42.53 803.963 42.716 803.555 43.088C803.159 43.46 802.961 44.108 802.961 45.032V50H800.441V40.028H802.961V41.576ZM808.997 38.84C808.553 38.84 808.181 38.702 807.881 38.426C807.593 38.138 807.449 37.784 807.449 37.364C807.449 36.944 807.593 36.596 807.881 36.32C808.181 36.032 808.553 35.888 808.997 35.888C809.441 35.888 809.807 36.032 810.095 36.32C810.395 36.596 810.545 36.944 810.545 37.364C810.545 37.784 810.395 38.138 810.095 38.426C809.807 38.702 809.441 38.84 808.997 38.84ZM810.239 40.028V50H807.719V40.028H810.239ZM812.08 45.014C812.08 43.982 812.29 43.082 812.71 42.314C813.13 41.534 813.712 40.934 814.456 40.514C815.2 40.082 816.052 39.866 817.012 39.866C818.248 39.866 819.268 40.178 820.072 40.802C820.888 41.414 821.434 42.278 821.71 43.394H818.992C818.848 42.962 818.602 42.626 818.254 42.386C817.918 42.134 817.498 42.008 816.994 42.008C816.274 42.008 815.704 42.272 815.284 42.8C814.864 43.316 814.654 44.054 814.654 45.014C814.654 45.962 814.864 46.7 815.284 47.228C815.704 47.744 816.274 48.002 816.994 48.002C818.014 48.002 818.68 47.546 818.992 46.634H821.71C821.434 47.714 820.888 48.572 820.072 49.208C819.256 49.844 818.236 50.162 817.012 50.162C816.052 50.162 815.2 49.952 814.456 49.532C813.712 49.1 813.13 48.5 812.71 47.732C812.29 46.952 812.08 46.046 812.08 45.014ZM826.49 42.098V46.922C826.49 47.258 826.568 47.504 826.724 47.66C826.892 47.804 827.168 47.876 827.552 47.876H828.722V50H827.138C825.014 50 823.952 48.968 823.952 46.904V42.098H822.764V40.028H823.952V37.562H826.49V40.028H828.722V42.098H826.49ZM842.528 47.606H837.524L836.696 50H834.05L838.568 37.418H841.502L846.02 50H843.356L842.528 47.606ZM841.844 45.59L840.026 40.334L838.208 45.59H841.844ZM850.643 42.098V46.922C850.643 47.258 850.721 47.504 850.877 47.66C851.045 47.804 851.321 47.876 851.705 47.876H852.875V50H851.291C849.167 50 848.105 48.968 848.105 46.904V42.098H846.917V40.028H848.105V37.562H850.643V40.028H852.875V42.098H850.643ZM857.621 42.098V46.922C857.621 47.258 857.699 47.504 857.855 47.66C858.023 47.804 858.299 47.876 858.683 47.876H859.853V50H858.269C856.145 50 855.083 48.968 855.083 46.904V42.098H853.895V40.028H855.083V37.562H857.621V40.028H859.853V42.098H857.621ZM866.094 50.162C865.134 50.162 864.27 49.952 863.502 49.532C862.734 49.1 862.128 48.494 861.684 47.714C861.252 46.934 861.036 46.034 861.036 45.014C861.036 43.994 861.258 43.094 861.702 42.314C862.158 41.534 862.776 40.934 863.556 40.514C864.336 40.082 865.206 39.866 866.166 39.866C867.126 39.866 867.996 40.082 868.776 40.514C869.556 40.934 870.168 41.534 870.612 42.314C871.068 43.094 871.296 43.994 871.296 45.014C871.296 46.034 871.062 46.934 870.594 47.714C870.138 48.494 869.514 49.1 868.722 49.532C867.942 49.952 867.066 50.162 866.094 50.162ZM866.094 47.966C866.55 47.966 866.976 47.858 867.372 47.642C867.78 47.414 868.104 47.078 868.344 46.634C868.584 46.19 868.704 45.65 868.704 45.014C868.704 44.066 868.452 43.34 867.948 42.836C867.456 42.32 866.85 42.062 866.13 42.062C865.41 42.062 864.804 42.32 864.312 42.836C863.832 43.34 863.592 44.066 863.592 45.014C863.592 45.962 863.826 46.694 864.294 47.21C864.774 47.714 865.374 47.966 866.094 47.966ZM875.664 41.576C875.988 41.048 876.408 40.634 876.924 40.334C877.452 40.034 878.052 39.884 878.724 39.884V42.53H878.058C877.266 42.53 876.666 42.716 876.258 43.088C875.862 43.46 875.664 44.108 875.664 45.032V50H873.144V40.028H875.664V41.576ZM885.948 39.884C887.136 39.884 888.096 40.262 888.828 41.018C889.56 41.762 889.926 42.806 889.926 44.15V50H887.406V44.492C887.406 43.7 887.208 43.094 886.812 42.674C886.416 42.242 885.876 42.026 885.192 42.026C884.496 42.026 883.944 42.242 883.536 42.674C883.14 43.094 882.942 43.7 882.942 44.492V50H880.422V40.028H882.942V41.27C883.278 40.838 883.704 40.502 884.22 40.262C884.748 40.01 885.324 39.884 885.948 39.884ZM901.592 44.798C901.592 45.158 901.568 45.482 901.52 45.77H894.23C894.29 46.49 894.542 47.054 894.986 47.462C895.43 47.87 895.976 48.074 896.624 48.074C897.56 48.074 898.226 47.672 898.622 46.868H901.34C901.052 47.828 900.5 48.62 899.684 49.244C898.868 49.856 897.866 50.162 896.678 50.162C895.718 50.162 894.854 49.952 894.086 49.532C893.33 49.1 892.736 48.494 892.304 47.714C891.884 46.934 891.674 46.034 891.674 45.014C891.674 43.982 891.884 43.076 892.304 42.296C892.724 41.516 893.312 40.916 894.068 40.496C894.824 40.076 895.694 39.866 896.678 39.866C897.626 39.866 898.472 40.07 899.216 40.478C899.972 40.886 900.554 41.468 900.962 42.224C901.382 42.968 901.592 43.826 901.592 44.798ZM898.982 44.078C898.97 43.43 898.736 42.914 898.28 42.53C897.824 42.134 897.266 41.936 896.606 41.936C895.982 41.936 895.454 42.128 895.022 42.512C894.602 42.884 894.344 43.406 894.248 44.078H898.982ZM912.971 40.028L906.797 54.716H904.115L906.275 49.748L902.279 40.028H905.105L907.679 46.994L910.289 40.028H912.971ZM921.139 39.47V42.62H925.369V44.618H921.139V47.948H925.909V50H918.619V37.418H925.909V39.47H921.139ZM930.719 36.68V50H928.199V36.68H930.719ZM942.479 44.798C942.479 45.158 942.455 45.482 942.407 45.77H935.117C935.177 46.49 935.429 47.054 935.873 47.462C936.317 47.87 936.863 48.074 937.511 48.074C938.447 48.074 939.113 47.672 939.509 46.868H942.227C941.939 47.828 941.387 48.62 940.571 49.244C939.755 49.856 938.753 50.162 937.565 50.162C936.605 50.162 935.741 49.952 934.973 49.532C934.217 49.1 933.623 48.494 933.191 47.714C932.771 46.934 932.561 46.034 932.561 45.014C932.561 43.982 932.771 43.076 933.191 42.296C933.611 41.516 934.199 40.916 934.955 40.496C935.711 40.076 936.581 39.866 937.565 39.866C938.513 39.866 939.359 40.07 940.103 40.478C940.859 40.886 941.441 41.468 941.849 42.224C942.269 42.968 942.479 43.826 942.479 44.798ZM939.869 44.078C939.857 43.43 939.623 42.914 939.167 42.53C938.711 42.134 938.153 41.936 937.493 41.936C936.869 41.936 936.341 42.128 935.909 42.512C935.489 42.884 935.231 43.406 935.135 44.078H939.869ZM943.67 45.014C943.67 43.982 943.88 43.082 944.3 42.314C944.72 41.534 945.302 40.934 946.046 40.514C946.79 40.082 947.642 39.866 948.602 39.866C949.838 39.866 950.858 40.178 951.662 40.802C952.478 41.414 953.024 42.278 953.3 43.394H950.582C950.438 42.962 950.192 42.626 949.844 42.386C949.508 42.134 949.088 42.008 948.584 42.008C947.864 42.008 947.294 42.272 946.874 42.8C946.454 43.316 946.244 44.054 946.244 45.014C946.244 45.962 946.454 46.7 946.874 47.228C947.294 47.744 947.864 48.002 948.584 48.002C949.604 48.002 950.27 47.546 950.582 46.634H953.3C953.024 47.714 952.478 48.572 951.662 49.208C950.846 49.844 949.826 50.162 948.602 50.162C947.642 50.162 946.79 49.952 946.046 49.532C945.302 49.1 944.72 48.5 944.3 47.732C943.88 46.952 943.67 46.046 943.67 45.014ZM958.08 42.098V46.922C958.08 47.258 958.158 47.504 958.314 47.66C958.482 47.804 958.758 47.876 959.142 47.876H960.312V50H958.728C956.604 50 955.542 48.968 955.542 46.904V42.098H954.354V40.028H955.542V37.562H958.08V40.028H960.312V42.098H958.08ZM963.403 38.84C962.959 38.84 962.587 38.702 962.287 38.426C961.999 38.138 961.855 37.784 961.855 37.364C961.855 36.944 961.999 36.596 962.287 36.32C962.587 36.032 962.959 35.888 963.403 35.888C963.847 35.888 964.213 36.032 964.501 36.32C964.801 36.596 964.951 36.944 964.951 37.364C964.951 37.784 964.801 38.138 964.501 38.426C964.213 38.702 963.847 38.84 963.403 38.84ZM964.645 40.028V50H962.125V40.028H964.645ZM971.563 50.162C970.603 50.162 969.739 49.952 968.971 49.532C968.203 49.1 967.597 48.494 967.153 47.714C966.721 46.934 966.505 46.034 966.505 45.014C966.505 43.994 966.727 43.094 967.171 42.314C967.627 41.534 968.245 40.934 969.025 40.514C969.805 40.082 970.675 39.866 971.635 39.866C972.595 39.866 973.465 40.082 974.245 40.514C975.025 40.934 975.637 41.534 976.081 42.314C976.537 43.094 976.765 43.994 976.765 45.014C976.765 46.034 976.531 46.934 976.063 47.714C975.607 48.494 974.983 49.1 974.191 49.532C973.411 49.952 972.535 50.162 971.563 50.162ZM971.563 47.966C972.019 47.966 972.445 47.858 972.841 47.642C973.249 47.414 973.573 47.078 973.813 46.634C974.053 46.19 974.173 45.65 974.173 45.014C974.173 44.066 973.921 43.34 973.417 42.836C972.925 42.32 972.319 42.062 971.599 42.062C970.879 42.062 970.273 42.32 969.781 42.836C969.301 43.34 969.061 44.066 969.061 45.014C969.061 45.962 969.295 46.694 969.763 47.21C970.243 47.714 970.843 47.966 971.563 47.966ZM984.139 39.884C985.327 39.884 986.287 40.262 987.019 41.018C987.751 41.762 988.117 42.806 988.117 44.15V50H985.597V44.492C985.597 43.7 985.399 43.094 985.003 42.674C984.607 42.242 984.067 42.026 983.383 42.026C982.687 42.026 982.135 42.242 981.727 42.674C981.331 43.094 981.133 43.7 981.133 44.492V50H978.613V40.028H981.133V41.27C981.469 40.838 981.895 40.502 982.411 40.262C982.939 40.01 983.515 39.884 984.139 39.884Z" fill="#262D33"/>
<path d="M1003.5 41.5L1007.5 45.5L1011.5 41.5" stroke="#262D33" stroke-width="2" stroke-linecap="round" stroke-linejoin="round"/>
<path d="M1721.67 36H1726.67C1727.55 36 1728.4 36.3512 1729.02 36.9763C1729.65 37.6014 1730 38.4493 1730 39.3333V51C1730 50.337 1729.74 49.7011 1729.27 49.2322C1728.8 48.7634 1728.16 48.5 1727.5 48.5H1721.67V36Z" stroke="#262D33" stroke-width="2" stroke-linecap="round" stroke-linejoin="round"/>
<path d="M1738.33 36H1733.33C1732.45 36 1731.6 36.3512 1730.98 36.9763C1730.35 37.6014 1730 38.4493 1730 39.3333V51C1730 50.337 1730.26 49.7011 1730.73 49.2322C1731.2 48.7634 1731.84 48.5 1732.5 48.5H1738.33V36Z" stroke="#262D33" stroke-width="2" stroke-linecap="round" stroke-linejoin="round"/>
</svg>
