<svg width="20" height="20" viewBox="0 0 20 20" fill="none" xmlns="http://www.w3.org/2000/svg">
<g clip-path="url(#clip0_1191_3588)">
<path d="M12.4997 5.83325H14.9997C15.5468 5.83325 16.0887 5.94103 16.5942 6.15042C17.0997 6.35982 17.559 6.66673 17.946 7.05364C18.3329 7.44055 18.6398 7.89988 18.8492 8.4054C19.0586 8.91093 19.1663 9.45274 19.1663 9.99992C19.1663 10.5471 19.0586 11.0889 18.8492 11.5944C18.6398 12.1 18.3329 12.5593 17.946 12.9462C17.559 13.3331 17.0997 13.64 16.5942 13.8494C16.0887 14.0588 15.5468 14.1666 14.9997 14.1666H12.4997M7.49967 14.1666H4.99967C4.4525 14.1666 3.91068 14.0588 3.40516 13.8494C2.89964 13.64 2.44031 13.3331 2.0534 12.9462C1.27199 12.1648 0.833008 11.105 0.833008 9.99992C0.833008 8.89485 1.27199 7.83504 2.0534 7.05364C2.8348 6.27224 3.89461 5.83325 4.99967 5.83325H7.49967" stroke="white" stroke-width="2" stroke-linecap="round" stroke-linejoin="round"/>
<path d="M6.66699 10H13.3337" stroke="white" stroke-width="2" stroke-linecap="round" stroke-linejoin="round"/>
</g>
<defs>
<clipPath id="clip0_1191_3588">
<rect width="20" height="20" fill="white"/>
</clipPath>
</defs>
</svg>
