<svg width="16" height="17" viewBox="0 0 16 17" fill="none" xmlns="http://www.w3.org/2000/svg">
<g clip-path="url(#clip0_344_6352)">
<path d="M12.6667 7.83334H3.33333C2.59695 7.83334 2 8.4303 2 9.16668V13.8333C2 14.5697 2.59695 15.1667 3.33333 15.1667H12.6667C13.403 15.1667 14 14.5697 14 13.8333V9.16668C14 8.4303 13.403 7.83334 12.6667 7.83334Z" stroke="white" stroke-width="2" stroke-linecap="round" stroke-linejoin="round"/>
<path d="M4.66699 7.83334V5.16668C4.66699 4.28262 5.01818 3.43478 5.6433 2.80965C6.26842 2.18453 7.11627 1.83334 8.00033 1.83334C8.88438 1.83334 9.73223 2.18453 10.3573 2.80965C10.9825 3.43478 11.3337 4.28262 11.3337 5.16668V7.83334" stroke="white" stroke-width="2" stroke-linecap="round" stroke-linejoin="round"/>
</g>
<defs>
<clipPath id="clip0_344_6352">
<rect width="16" height="16" fill="white" transform="translate(0 0.5)"/>
</clipPath>
</defs>
</svg>
