<svg width="20" height="20" viewBox="0 0 20 20" fill="none" xmlns="http://www.w3.org/2000/svg">
<path d="M1.66602 2.5H6.66601C7.55007 2.5 8.39792 2.85119 9.02304 3.47631C9.64816 4.10143 9.99935 4.94928 9.99935 5.83333V17.5C9.99935 16.837 9.73596 16.2011 9.26711 15.7322C8.79827 15.2634 8.16239 15 7.49935 15H1.66602V2.5Z" stroke="#262D33" stroke-width="2" stroke-linecap="round" stroke-linejoin="round"/>
<path d="M18.3333 2.5H13.3333C12.4493 2.5 11.6014 2.85119 10.9763 3.47631C10.3512 4.10143 10 4.94928 10 5.83333V17.5C10 16.837 10.2634 16.2011 10.7322 15.7322C11.2011 15.2634 11.837 15 12.5 15H18.3333V2.5Z" stroke="#262D33" stroke-width="2" stroke-linecap="round" stroke-linejoin="round"/>
</svg>
