<svg width="59" height="60" viewBox="0 0 59 60" fill="none" xmlns="http://www.w3.org/2000/svg">
<path fill-rule="evenodd" clip-rule="evenodd" d="M16.8556 14.1316C19.9948 11.7068 23.7871 10.2327 27.7788 9.91856C32.6449 9.5356 37.4879 10.9015 41.4368 13.7705C45.3857 16.6396 48.1813 20.8235 49.3208 25.5697C50.4603 30.316 49.8689 35.3131 47.6529 39.6622C45.4369 44.0113 41.7418 47.427 37.2323 49.2949C32.7227 51.1628 27.6947 51.3603 23.0524 49.852C18.4102 48.3436 14.4585 45.2284 11.9082 41.0665L4.23441 45.769C7.90446 51.758 13.591 56.2409 20.2713 58.4115C26.9515 60.582 34.1871 60.2978 40.6764 57.6098C47.1658 54.9218 52.4831 50.0065 55.6719 43.7481C58.8608 37.4896 59.7119 30.2987 58.0722 23.4687C56.4324 16.6388 52.4095 10.618 46.7269 6.48938C41.0443 2.36075 34.0751 0.395216 27.0727 0.946308C20.6048 1.45533 14.5008 4.08059 9.6926 8.39238L3.43235 3.3765L0.570251 27.0315L23.0319 19.0802L16.8556 14.1316Z" fill="black"/>
</svg>
