<svg width="20" height="20" viewBox="0 0 20 20" fill="none" xmlns="http://www.w3.org/2000/svg">
<rect width="20" height="20" rx="10" fill="white"/>
<path d="M13.3768 8.31196C13.3768 12.0266 15.0653 11.6889 15.0653 13.3773C15.0653 13.3773 15.0653 14.0527 14.3899 14.0527H5.60995C4.93457 14.0527 4.93457 13.3773 4.93457 13.3773C4.93457 11.6889 6.62302 12.0266 6.62302 8.31196C6.62302 6.44724 8.13486 4.93506 9.99993 4.93506C11.865 4.93506 13.3768 6.44724 13.3768 8.31196Z" fill="#FFAC33"/>
<path d="M10.0001 5.94777C10.5596 5.94777 11.0132 5.49421 11.0132 4.9347C11.0132 4.3752 10.5596 3.92163 10.0001 3.92163C9.44063 3.92163 8.98706 4.3752 8.98706 4.9347C8.98706 5.49421 9.44063 5.94777 10.0001 5.94777Z" fill="#FFAC33"/>
<path d="M9.99993 16.0783C10.7459 16.0783 11.3507 15.4735 11.3507 14.7275H8.64917C8.64917 15.4735 9.25397 16.0783 9.99993 16.0783Z" fill="#FFAC33"/>
</svg>
