<svg width="30" height="31" viewBox="0 0 30 31" fill="none" xmlns="http://www.w3.org/2000/svg">
<g clip-path="url(#clip0)">
<rect y="0.5" width="30" height="30" rx="15" fill="white"/>
<path d="M5.71025 9.54983C5.71025 10.019 5.32945 10.3998 4.86025 10.3998H0.610254C0.141054 10.3998 -0.239746 10.019 -0.239746 9.54983C-0.239746 9.08063 0.141054 8.69983 0.610254 8.69983H4.86025C5.32945 8.69983 5.71025 9.08063 5.71025 9.54983ZM4.01025 13.7998C4.01025 14.269 3.62945 14.6498 3.16025 14.6498H0.610254C0.141054 14.6498 -0.239746 14.269 -0.239746 13.7998C-0.239746 13.3306 0.141054 12.9498 0.610254 12.9498H3.16025C3.62945 12.9498 4.01025 13.3306 4.01025 13.7998ZM2.31025 18.0498C2.31025 18.5199 1.92945 18.8998 1.46025 18.8998H0.610254C0.141054 18.8998 -0.239746 18.5199 -0.239746 18.0498C-0.239746 17.5798 0.141054 17.1998 0.610254 17.1998H1.46025C1.92945 17.1998 2.31025 17.5798 2.31025 18.0498Z" fill="#55ACEE"/>
<path d="M27.2165 20.6C26.6844 22.4777 24.7303 24 22.8526 24H5.85264C3.97499 24 2.88444 22.4777 3.41654 20.6L6.30484 10.4C6.83694 8.52235 8.79024 7 10.6679 7H27.6679C29.5455 7 30.6369 8.52235 30.1048 10.4L27.2165 20.6Z" fill="#CCD6DD"/>
<path d="M14.496 14.3404L3.4868 22.2565C3.4579 22.2803 3.4409 22.31 3.41455 22.3338C3.5667 22.8183 3.85485 23.2204 4.25775 23.5102C4.2875 23.4907 4.3198 23.4822 4.3487 23.4592L15.3579 15.5423C15.7838 15.21 15.9368 14.6728 15.6988 14.3404C15.4599 14.0081 14.9227 14.0081 14.496 14.3404ZM26.2345 22.3338C26.2218 22.31 26.2209 22.2803 26.2056 22.2573L19.6827 14.3404C19.4439 14.0081 18.9067 14.0081 18.4791 14.3404C18.0533 14.6728 17.9011 15.21 18.1391 15.5423L24.6637 23.4592C24.679 23.4813 24.7071 23.4907 24.7249 23.5102C25.291 23.2212 25.8078 22.8183 26.2345 22.3338Z" fill="#99AAB5"/>
<path d="M30.1045 10.4C30.6366 8.52235 29.5452 7 27.6675 7H10.6675C8.78987 7 6.83657 8.52235 6.30447 10.4L6.28662 10.4629L13.7717 17.6471C15.1581 18.9935 16.9915 18.9008 18.638 17.9624L29.8809 11.193L30.1045 10.4Z" fill="#99AAB5"/>
<path d="M27.6679 7H10.6679C9.32665 7 7.9573 7.78285 7.0835 8.9108L14.9179 16.3857C15.5546 16.9969 16.9868 17.0054 18.0255 16.3857L30.1754 8.9329C29.9493 7.79305 29.0177 7 27.6679 7Z" fill="#E1E8ED"/>
</g>
<defs>
<clipPath id="clip0">
<rect y="0.5" width="30" height="30" rx="15" fill="white"/>
</clipPath>
</defs>
</svg>
