<svg width="30" height="30" viewBox="0 0 30 30" fill="none" xmlns="http://www.w3.org/2000/svg">
<g clip-path="url(#clip0)">
<path d="M5.71074 9.0502C5.71074 9.5194 5.32994 9.9002 4.86074 9.9002H0.610742C0.141542 9.9002 -0.239258 9.5194 -0.239258 9.0502C-0.239258 8.581 0.141542 8.2002 0.610742 8.2002H4.86074C5.32994 8.2002 5.71074 8.581 5.71074 9.0502ZM4.01074 13.3002C4.01074 13.7694 3.62994 14.1502 3.16074 14.1502H0.610742C0.141542 14.1502 -0.239258 13.7694 -0.239258 13.3002C-0.239258 12.831 0.141542 12.4502 0.610742 12.4502H3.16074C3.62994 12.4502 4.01074 12.831 4.01074 13.3002ZM2.31074 17.5502C2.31074 18.0202 1.92994 18.4002 1.46074 18.4002H0.610742C0.141542 18.4002 -0.239258 18.0202 -0.239258 17.5502C-0.239258 17.0801 0.141542 16.7002 0.610742 16.7002H1.46074C1.92994 16.7002 2.31074 17.0801 2.31074 17.5502Z" fill="#55ACEE"/>
<path d="M27.217 20.1C26.6849 21.9777 24.7308 23.5 22.8531 23.5H5.85313C3.97548 23.5 2.88493 21.9777 3.41703 20.1L6.30533 9.9C6.83743 8.02235 8.79073 6.5 10.6684 6.5H27.6684C29.546 6.5 30.6374 8.02235 30.1053 9.9L27.217 20.1Z" fill="#CCD6DD"/>
<path d="M14.4965 13.8401L3.48729 21.7561C3.45839 21.7799 3.44139 21.8097 3.41504 21.8335C3.56719 22.318 3.85534 22.72 4.25824 23.0099C4.28799 22.9903 4.32029 22.9818 4.34919 22.9589L15.3584 15.042C15.7842 14.7096 15.9372 14.1724 15.6992 13.8401C15.4604 13.5077 14.9232 13.5077 14.4965 13.8401ZM26.235 21.8335C26.2222 21.8097 26.2214 21.7799 26.2061 21.757L19.6832 13.8401C19.4443 13.5077 18.9071 13.5077 18.4796 13.8401C18.0537 14.1724 17.9016 14.7096 18.1396 15.042L24.6642 22.9589C24.6795 22.981 24.7075 22.9903 24.7254 23.0099C25.2915 22.7209 25.8083 22.318 26.235 21.8335Z" fill="#99AAB5"/>
<path d="M30.105 9.9C30.6371 8.02235 29.5457 6.5 27.668 6.5H10.668C8.79036 6.5 6.83706 8.02235 6.30496 9.9L6.28711 9.9629L13.7722 17.1471C15.1586 18.4935 16.992 18.4008 18.6385 17.4624L29.8814 10.693L30.105 9.9Z" fill="#99AAB5"/>
<path d="M27.6684 6.5H10.6684C9.32713 6.5 7.95778 7.28285 7.08398 8.4108L14.9184 15.8857C15.5551 16.4969 16.9873 16.5054 18.026 15.8857L30.1759 8.4329C29.9498 7.29305 29.0182 6.5 27.6684 6.5Z" fill="#E1E8ED"/>
</g>
<defs>
<clipPath id="clip0">
<rect width="30" height="30" rx="15" fill="white"/>
</clipPath>
</defs>
</svg>
