<svg width="316" height="316" viewBox="0 0 316 316" fill="none" xmlns="http://www.w3.org/2000/svg">
<rect width="316" height="316" rx="20" fill="#E9EAEB"/>
<rect width="316" height="316" rx="20" fill="white" fill-opacity="0.5"/>
<path d="M158.5 256C212.348 256 256 212.348 256 158.5C256 104.652 212.348 61 158.5 61C104.652 61 61 104.652 61 158.5C61 212.348 104.652 256 158.5 256Z" fill="#262D33"/>
<path d="M158.502 233.783C200.223 233.783 234.044 199.962 234.044 158.241C234.044 116.521 200.223 82.6997 158.502 82.6997C116.782 82.6997 82.9609 116.521 82.9609 158.241C82.9609 199.962 116.782 233.783 158.502 233.783Z" fill="white"/>
<path d="M160.412 86.5176H156.049V94.699H160.412V86.5176Z" fill="#7470FF"/>
<path d="M160.412 222.329H156.049V230.51H160.412V222.329Z" fill="#7470FF"/>
<path d="M94.416 160.695V156.332H86.2346V160.695H94.416Z" fill="#7470FF"/>
<path d="M230.229 160.695V156.332H222.047V160.695H230.229Z" fill="#7470FF"/>
<path d="M155.32 162.894L159.049 154.367L205.774 180.245L155.32 162.894Z" fill="#7470FF"/>
<path d="M158.231 168.605C163.804 168.605 168.321 164.087 168.321 158.514C168.321 152.941 163.804 148.424 158.231 148.424C152.658 148.424 148.141 152.941 148.141 158.514C148.141 164.087 152.658 168.605 158.231 168.605Z" fill="#262D33"/>
</svg>