<svg width="195" height="195" viewBox="0 0 195 195" fill="none" xmlns="http://www.w3.org/2000/svg">
<path d="M97.5 195C151.348 195 195 151.348 195 97.5C195 43.6522 151.348 0 97.5 0C43.6522 0 0 43.6522 0 97.5C0 151.348 43.6522 195 97.5 195Z" fill="#262D33"/>
<path d="M97.5024 172.783C139.223 172.783 173.044 138.962 173.044 97.2411C173.044 55.5208 139.223 21.6997 97.5024 21.6997C55.782 21.6997 21.9609 55.5208 21.9609 97.2411C21.9609 138.962 55.782 172.783 97.5024 172.783Z" fill="white"/>
<path d="M99.4122 25.5176H95.0488V33.699H99.4122V25.5176Z" fill="#7470FF"/>
<path d="M99.4122 161.329H95.0488V169.51H99.4122V161.329Z" fill="#7470FF"/>
<path d="M33.416 99.695V95.3315H25.2346V99.695H33.416Z" fill="#7470FF"/>
<path d="M169.229 99.695V95.3315H161.047V99.695H169.229Z" fill="#7470FF"/>
<path d="M94.3203 101.894L98.0493 93.3672L144.774 119.245L94.3203 101.894Z" fill="#7470FF"/>
<path d="M97.231 107.605C102.804 107.605 107.321 103.087 107.321 97.5142C107.321 91.9414 102.804 87.4238 97.231 87.4238C91.6582 87.4238 87.1406 91.9414 87.1406 97.5142C87.1406 103.087 91.6582 107.605 97.231 107.605Z" fill="#262D33"/>
</svg>
