<svg width="300" height="263" viewBox="0 0 300 263" fill="none" xmlns="http://www.w3.org/2000/svg">
<path d="M11.5461 245.658L13.8047 217.529L20.2578 247.275C20.2578 247.275 20.1727 254.78 19.9588 263H11.6914C11.413 253.603 11.5461 245.658 11.5461 245.658Z" fill="#F2F2F2"/>
<path d="M127.673 255.662C128.308 253.031 128.757 250.359 129.015 247.665L129.919 237.934C130.299 235.269 130.689 232.921 131.081 230.848C133.958 216.071 136.928 215.536 136.928 215.536C137.055 215.634 137.179 215.743 137.307 215.855C137.656 216.173 137.981 216.516 138.279 216.883C143.009 222.907 146.218 238.531 147.903 248.896C148.834 254.621 149.298 258.741 149.298 258.741C149.298 258.741 148.876 260.496 148.302 262.999H126.719C126.8 260.528 127.12 258.071 127.673 255.662Z" fill="#F2F2F2"/>
<path d="M229.617 101.142C205.304 101.142 185.594 83.1682 185.594 60.9967C185.594 38.8251 205.304 20.8516 229.617 20.8516C253.931 20.8516 273.641 38.8251 273.641 60.9967C273.641 83.1682 253.931 101.142 229.617 101.142Z" fill="#3F3D56"/>
<path d="M157.094 192.182C157.094 192.182 142.265 181.966 142.265 177.322C142.265 172.679 132.07 142.494 126.51 155.961C120.949 169.428 134.387 188.467 134.387 188.467C134.387 188.467 149.216 215.401 158.021 220.045C166.826 224.689 174.24 221.902 174.24 221.902V209.364L165.768 196.8C164.81 195.378 163.518 194.213 162.005 193.408C160.493 192.603 158.807 192.182 157.094 192.182Z" fill="#FFB9B9"/>
<path d="M199.243 121.057C199.243 121.057 177.02 128.099 174.703 131.349C172.386 134.6 171.459 129.028 164.971 150.389C158.484 171.75 156.862 192.415 156.862 192.415C156.862 192.415 172.849 197.755 170.996 218.652C169.142 239.548 173.776 262.303 173.776 262.303H179.561L192.312 222.831L177.02 162.927C177.02 162.927 198.76 126.089 199.243 121.057Z" fill="#575A89"/>
<path d="M206.678 101.63C191.322 101.63 178.874 89.1552 178.874 73.7672C178.874 58.3792 191.322 45.9048 206.678 45.9048C222.034 45.9048 234.482 58.3792 234.482 73.7672C234.482 89.1552 222.034 101.63 206.678 101.63Z" fill="#FFB9B9"/>
<path d="M196.02 94.6637C196.02 94.6637 203.898 120.669 196.947 124.384C189.996 128.099 182.118 144.816 182.118 144.816L194.166 158.283H221.971L234.483 144.352L239.58 120.669L232.629 115.096C232.629 115.096 225.215 96.5212 225.215 86.7694C225.215 77.0175 196.02 94.6637 196.02 94.6637Z" fill="#FFB9B9"/>
<path d="M193.703 123.455C193.703 123.455 199.264 122.062 196.02 127.635C192.777 133.207 189.533 143.424 201.118 143.888C212.703 144.352 224.288 138.315 227.995 125.777C231.703 113.239 233.093 114.168 234.483 114.632C235.873 115.097 250.702 130.421 250.702 130.421L245.605 159.212L243.751 262.303H176.094C176.094 262.303 173.314 232.583 177.948 225.618C182.582 218.652 173.777 201.006 173.777 201.006C173.777 201.006 165.899 188.932 171.923 165.713C177.948 142.495 191.386 123.455 193.703 123.455Z" fill="#6C63FF"/>
<path d="M231.238 114.632C231.238 114.632 238.189 111.381 244.214 116.954C250.238 122.526 263.677 127.17 263.677 129.956C263.677 132.743 252.091 212.15 259.969 226.082C267.847 240.013 276.188 262.303 276.188 262.303H237.534C237.534 262.303 231.238 239.084 224.751 226.546C218.263 214.008 218.726 178.716 220.58 168.035C222.434 157.354 231.238 114.632 231.238 114.632Z" fill="#575A89"/>
<path d="M272.019 237.691L269.762 262.303H244.716L246.995 231.654L272.019 237.691Z" fill="#FFB9B9"/>
<path d="M158.021 224.689L151.996 262.303H18.0724L6.48726 186.61L158.021 224.689Z" fill="#3F3D56"/>
<path d="M1.39037 181.502L0.000152588 188.468L173.313 230.262V224.225L1.39037 181.502Z" fill="#3F3D56"/>
<path d="M74.6083 194.04L75.5352 201.934L65.3403 200.541L69.5109 192.647L74.6083 194.04Z" fill="#3F3D56"/>
<path d="M130.68 114.168C130.68 114.168 110.29 112.775 104.729 128.563C99.1682 144.352 86.1929 172.679 81.0954 176.858C75.998 181.038 70.4371 192.183 71.3639 195.898" stroke="#3F3D56" stroke-width="5" stroke-miterlimit="10"/>
<path d="M127.668 113.935C127.668 116.115 129.981 117.882 133.692 117.882C137.403 117.882 139.253 116.115 139.253 113.935C139.253 111.755 137.403 109.988 133.692 109.988C129.981 109.988 127.668 111.755 127.668 113.935Z" fill="#6C63FF"/>
<path d="M161.96 186.378C161.96 186.378 158.485 171.75 164.972 150.389C171.46 129.028 172.387 134.6 174.704 131.349C177.021 128.099 199.244 121.057 199.244 121.057C199.085 122.711 196.631 127.798 193.408 133.885C193.988 131.691 194.867 129.588 196.021 127.634C199.264 122.062 193.704 123.455 193.704 123.455C191.387 123.455 177.948 142.494 171.924 165.713C165.899 188.932 173.777 201.006 173.777 201.006L161.96 186.378Z" fill="#575A89"/>
<path d="M199.032 120.901C199.032 120.901 196.289 131.33 193.953 132.849C191.618 134.368 177.767 148.789 177.767 148.789L179.569 137.154L186.984 126.009L188.956 124.575L199.032 120.901Z" fill="#575A89"/>
<path opacity="0.1" d="M260.665 152.943L260.019 129.028C260.019 129.028 275.263 135.529 276.653 163.391C278.043 191.254 274.336 243.728 269.238 244.192C264.141 244.657 240.044 239.084 240.044 239.084C240.044 239.084 236.336 171.75 237.727 162.927C239.117 154.104 260.665 152.943 260.665 152.943Z" fill="black"/>
<path d="M259.507 129.028H263.263C263.263 129.028 278.507 135.529 279.897 163.391C281.287 191.254 277.58 243.728 272.482 244.192C267.385 244.657 243.288 239.084 243.288 239.084C243.288 239.084 239.581 171.75 240.971 162.927C242.361 154.104 259.507 129.028 259.507 129.028Z" fill="#575A89"/>
<path d="M239.812 98.6109C223.944 98.6109 211.081 84.1614 211.081 66.337C211.081 48.5125 223.944 34.063 239.812 34.063C255.68 34.063 268.543 48.5125 268.543 66.337C268.543 84.1614 255.68 98.6109 239.812 98.6109Z" fill="#3F3D56"/>
<path d="M219.19 92.5742C215.991 92.5742 213.397 88.7279 213.397 83.9833C213.397 79.2386 215.991 75.3923 219.19 75.3923C222.389 75.3923 224.982 79.2386 224.982 83.9833C224.982 88.7279 222.389 92.5742 219.19 92.5742Z" fill="#FFB9B9"/>
<path d="M268.543 57.7458C255.491 57.7458 244.91 47.1425 244.91 34.0627C244.91 20.9829 255.491 10.3796 268.543 10.3796C281.596 10.3796 292.177 20.9829 292.177 34.0627C292.177 47.1425 281.596 57.7458 268.543 57.7458Z" fill="#3F3D56"/>
<path d="M265.488 53.0359C268.921 54.7865 272.73 55.6695 276.581 55.608C280.433 55.5464 284.212 54.5423 287.587 52.6829C290.963 50.8235 293.835 48.1653 295.951 44.9398C298.067 41.7142 299.365 38.0191 299.73 34.1763C300.235 37.4935 300.03 40.8803 299.13 44.1122C298.23 47.3442 296.654 50.3475 294.508 52.9232C292.362 55.4989 289.694 57.588 286.681 59.0523C283.668 60.5165 280.379 61.3224 277.032 61.4165C273.684 61.5106 270.356 60.8908 267.265 59.5982C264.175 58.3055 261.395 56.3695 259.108 53.9185C256.821 51.4675 255.08 48.5574 254 45.3811C252.92 42.2048 252.527 38.8348 252.845 35.4945C253.407 39.2156 254.848 42.7485 257.047 45.7994C259.246 48.8504 262.14 51.3313 265.488 53.0359Z" fill="#3F3D56"/>
<path d="M281.509 37.9774C283.882 34.9366 285.477 31.3606 286.156 27.5607C286.835 23.7608 286.576 19.8522 285.403 16.1754C284.229 12.4985 282.177 9.16483 279.424 6.46462C276.671 3.76441 273.301 1.77954 269.607 0.682861C272.953 0.822942 276.231 1.67393 279.223 3.17942C282.216 4.68492 284.855 6.81056 286.966 9.41546C289.077 12.0204 290.611 15.045 291.467 18.2891C292.323 21.5331 292.481 24.9224 291.931 28.2323C291.381 31.5423 290.135 34.6973 288.276 37.4883C286.418 40.2793 283.988 42.6426 281.149 44.4216C278.31 46.2005 275.126 47.3544 271.808 47.8069C268.49 48.2594 265.114 48.0002 261.903 47.0463C265.656 47.2072 269.392 46.4683 272.802 44.8909C276.212 43.3136 279.197 40.9434 281.509 37.9774Z" fill="#3F3D56"/>
<path d="M205.057 64.2466C195.843 64.2466 188.374 58.841 188.374 52.1728C188.374 45.5047 195.843 40.0991 205.057 40.0991C214.27 40.0991 221.739 45.5047 221.739 52.1728C221.739 58.841 214.27 64.2466 205.057 64.2466Z" fill="#3F3D56"/>
</svg>
