<svg width="197" height="45" viewBox="0 0 197 45" fill="none" xmlns="http://www.w3.org/2000/svg">
<path opacity="0.5" d="M17.6391 29.9952L17.6401 29.8788C17.6419 29.8236 17.6447 29.7681 17.651 29.7133C17.6615 29.621 17.6764 29.5295 17.6901 29.4376L17.7089 29.2982C17.7242 29.1826 17.7426 29.0666 17.7441 28.9497C17.7449 28.8783 17.7294 28.8085 17.7087 28.7407L17.6529 28.6013C17.6194 28.5306 17.5845 28.461 17.5476 28.3922L17.3891 28.1134C17.3367 28.0214 17.2863 27.9285 17.2377 27.8346L17.1324 27.6255L16.9227 27.2073L16.3634 26.0921L16.0838 25.5346L15.9823 25.3281L15.9278 25.1979L15.8956 25.0762L15.8872 24.9571L15.8943 24.8313L15.9105 24.6971L15.9318 24.5587L15.9801 24.2102L16.0122 24.0012L16.0501 23.7224L16.0821 23.5133L16.1101 23.3042L16.1512 23.0254L16.1674 22.886L16.1818 22.7466L16.2318 22.3981L16.2598 22.189L16.3017 21.9102L16.3297 21.7011L16.3617 21.492L16.3996 21.2132L16.4316 21.0041L16.4695 20.7253L16.5008 20.5162L16.517 20.3768L16.5313 20.2374L16.5715 19.9586L16.6094 19.6798L16.6414 19.4708L16.6793 19.192L16.7113 18.9829L16.7492 18.7041L16.7812 18.495L16.8191 18.2162L16.8503 18.0071L16.8898 17.6586L16.921 17.4495L16.9589 17.1707L16.9909 16.9616L17.0288 16.6828L17.0707 16.404L17.0987 16.1949L17.1308 15.9858L17.4803 13.4767L17.4993 13.3373L17.5182 13.1979L17.5583 12.9191L17.58 12.71L17.5988 12.5706L17.6201 12.4312L17.658 12.1524L17.6901 11.9433L17.728 11.6645L17.7698 11.3857L17.788 11.2463L17.8084 11.1069L17.8286 10.9675L17.836 10.8978L17.8397 10.7584C17.8355 10.6167 17.8049 10.4767 17.7678 10.3403C17.7288 10.1967 17.6816 10.053 17.6099 9.92206L17.5238 9.78272L17.4717 9.71323L17.3521 9.57658L17.2865 9.51118L17.1494 9.39168C17.0026 9.27561 16.8366 9.18675 16.6603 9.12391C16.5915 9.09939 16.5213 9.08107 16.4506 9.06336L16.3807 9.0483C16.2878 9.03133 16.1946 9.01939 16.101 9.00689L15.9612 8.98667L15.7515 8.95709L15.4718 8.92665L15.2621 8.89546L14.9856 8.85765C14.8909 8.84311 14.7969 8.82437 14.7028 8.80688L14.6616 8.92337L14.6568 8.95736L14.6413 9.02717L14.6331 9.08879L14.6138 9.2254L14.5819 9.43417L14.544 9.71296L14.5039 9.99176L14.4733 10.2706L14.4421 10.4796L14.414 10.6887L14.3722 10.9675L14.3441 11.1766L14.3022 11.4554L14.2742 11.6645L14.2323 11.9433L14.1944 12.2221L14.1632 12.4312L14.147 12.5706L14.1326 12.71L14.0925 12.9888L14.0546 13.2676L14.0226 13.4767L13.9847 13.7555L13.9527 13.9646L13.9148 14.2434L13.8828 14.4525L13.8449 14.7313L13.8136 14.9404L13.7742 15.2888L13.7429 15.4979L13.7051 15.7767L13.673 15.9858L13.6351 16.2646L13.6031 16.4737L13.5652 16.7525L13.5332 16.9616L13.4953 17.2404L13.4633 17.4495L13.4254 17.7283L13.3853 18.0071L13.3709 18.1465L13.3547 18.2859L13.3235 18.495L13.2856 18.7738L13.2536 18.9829L13.2157 19.2617L13.1836 19.4708L13.1458 19.7495L13.1137 19.9586L13.0857 20.1677L13.0446 20.4465L13.0052 20.795L12.9739 21.0041L12.936 21.2829L12.904 21.492L12.8661 21.7708L12.8341 21.9799L12.7962 22.2587L12.7642 22.4678L12.7361 22.6769L12.6862 23.0254L12.6556 23.3038L12.6254 23.5021L12.6171 23.5719L12.6123 23.6059L12.6054 23.7224L12.4886 23.7155L12.4545 23.7107L12.3845 23.7024L12.1856 23.6712L12.0474 23.6486L11.9167 23.6116L11.8589 23.5813L11.7711 23.4911L11.7307 23.3698L11.7269 23.3028L11.7304 23.2341L11.7384 23.1647L11.7574 23.0254L11.7854 22.8163L11.8273 22.5375L11.8553 22.3284L11.8972 22.0496L11.9252 21.8405L11.9572 21.6314L11.9951 21.3526L12.0272 21.1435L12.065 20.8647L12.0963 20.6556L12.1269 20.3768L12.167 20.098L12.2049 19.8192L12.2369 19.6101L12.2748 19.3314L12.3068 19.1223L12.3447 18.8435L12.3767 18.6344L12.4146 18.3556L12.4459 18.1465L12.4853 17.798L12.5264 17.5192L12.5544 17.3101L12.5865 17.101L12.6243 16.8222L12.6564 16.6131L12.6943 16.3343L12.7263 16.1252L12.7642 15.8464L12.7954 15.6373L12.8349 15.2888L12.8661 15.0797L12.904 14.801L12.936 14.5919L12.9739 14.3131L13.0059 14.104L13.0438 13.8252L13.0758 13.6161L13.1039 13.407L13.145 13.1282L13.1844 12.7797L13.2255 12.5009L13.2536 12.2918L13.2856 12.0827L13.3235 11.8039L13.3555 11.5948L13.3934 11.316L13.4254 11.1069L13.4633 10.8281L13.4945 10.619L13.534 10.2706L13.5652 10.0615L13.6031 9.78266L13.6351 9.57357L13.6632 9.36447L13.7041 9.086L13.7177 8.9494C13.7257 8.85586 13.7232 8.7612 13.724 8.66749L13.6072 8.66066L13.5731 8.65582L13.5031 8.64753L13.2345 8.6086L12.955 8.57816L12.7452 8.54696L12.4656 8.50922L12.2558 8.47727L11.9762 8.43952L11.7665 8.40757L11.4872 8.36982L11.2883 8.33895L11.2183 8.33066L11.1842 8.32582L11.0673 8.31899L11.0605 8.43548L11.0557 8.46947L11.0473 8.53928L11.0171 8.73751L10.9866 9.01598L10.9366 9.36447L10.9086 9.57357L10.8765 9.78266L10.8386 10.0615L10.8066 10.2706L10.7687 10.5493L10.7367 10.7584L10.6988 11.0372L10.6676 11.2463L10.6281 11.5948L10.5969 11.8039L10.559 12.0827L10.527 12.2918L10.4891 12.5706L10.4571 12.7797L10.4192 13.0585L10.3872 13.2676L10.3591 13.4767L10.318 13.7555L10.2786 14.104L10.2473 14.3131L10.2094 14.5919L10.1774 14.801L10.1395 15.0797L10.1075 15.2888L10.0696 15.5676L10.0376 15.7767L9.9997 16.0555L9.95957 16.3343L9.94524 16.4737L9.92902 16.6131L9.88791 16.8919L9.85987 17.101L9.82785 17.3101L9.78996 17.5889L9.75794 17.798L9.72005 18.0768L9.68803 18.2859L9.65013 18.5647L9.61888 18.7738L9.57945 19.1223L9.53834 19.4011L9.51031 19.6101L9.47829 19.8192L9.4404 20.098L9.40838 20.3071L9.37048 20.5859L9.33847 20.795L9.30057 21.0738L9.26932 21.2829L9.22989 21.6314L9.19864 21.8405L9.16075 22.1193L9.12873 22.3284L9.10069 22.5375L9.05979 22.8159L9.04616 22.9525C9.03812 23.0461 9.04064 23.1408 9.03987 23.2345L8.92305 23.2217L8.88893 23.2153L8.81895 23.2048L8.68856 23.1844L8.34389 23.1451C8.24916 23.1326 8.15499 23.1124 8.0611 23.0951L8.10227 22.9786L8.10703 22.9446L8.12255 22.8748L8.13073 22.8131L8.15002 22.6765L8.18197 22.4678L8.21987 22.189L8.26 21.9102L8.29055 21.6314L8.3218 21.4223L8.34983 21.2132L8.39171 20.9344L8.41975 20.7253L8.46162 20.4465L8.48966 20.2374L8.53154 19.9586L8.56943 19.6798L8.60068 19.4708L8.6169 19.3314L8.63123 19.192L8.67136 18.9132L8.70925 18.6344L8.74127 18.4253L8.77917 18.1465L8.81119 17.9374L8.84908 17.6586L8.8811 17.4495L8.91899 17.1707L8.95024 16.9616L8.98967 16.6131L9.03078 16.3343L9.05882 16.1252L9.09084 15.9161L9.12873 15.6373L9.16075 15.4282L9.19864 15.1494L9.23066 14.9404L9.26855 14.6616L9.2998 14.4525L9.33923 14.104L9.37048 13.8949L9.40838 13.6161L9.4404 13.407L9.47829 13.1282L9.51031 12.9191L9.5482 12.6403L9.58022 12.4312L9.60826 12.2221L9.64937 11.9433L9.66558 11.8039L9.67992 11.6645L9.72005 11.3857L9.75794 11.1069L9.78996 10.8978L9.82785 10.619L9.85987 10.4099L9.89776 10.1312L9.92978 9.92206L9.96768 9.64327L9.9997 9.43417L10.0277 9.22507L10.0777 8.87658L10.1083 8.59811L10.1385 8.39988L10.1468 8.33007L10.1516 8.29608L10.1585 8.1796L10.0416 8.17277L10.0075 8.16793L9.93754 8.15964L9.73864 8.12877L9.45934 8.09102L9.24961 8.05907L8.96996 8.02133L8.76022 7.98938L8.48057 7.95163L8.27083 7.92043L7.99132 7.88999L7.72272 7.85106L7.65274 7.84277L7.61864 7.83794L7.5018 7.83111C7.48428 7.92487 7.46488 8.01864 7.45087 8.11301L7.41295 8.38869L7.3809 8.59779L7.35286 8.80688L7.31099 9.08568L7.27313 9.36447L7.24184 9.57357L7.20246 9.92206L7.17117 10.1312L7.1333 10.4099L7.10126 10.619L7.06339 10.8978L7.03134 11.1069L6.99348 11.3857L6.96143 11.5948L6.92357 11.8736L6.88343 12.1524L6.86908 12.2918L6.8529 12.4312L6.82161 12.6403L6.78374 12.9191L6.75169 13.1282L6.71383 13.407L6.68178 13.6161L6.64392 13.8949L6.61187 14.104L6.574 14.3828L6.54196 14.5919L6.50409 14.8707L6.4728 15.0797L6.43342 15.4282L6.40213 15.6373L6.36427 15.9161L6.33222 16.1252L6.29435 16.404L6.26231 16.6131L6.22444 16.8919L6.19239 17.101L6.16435 17.3101L6.12324 17.5889L6.08386 17.9374L6.05257 18.1465L6.01471 18.4253L5.98266 18.6344L5.94479 18.9132L5.91274 19.1223L5.87488 19.4011L5.84283 19.6101L5.81478 19.8192L5.77367 20.098L5.7343 20.4465L5.70301 20.6556L5.66514 20.9344L5.6331 21.1435L5.59523 21.4223L5.56318 21.6314L5.52532 21.9102L5.49327 22.1193L5.46522 22.328L5.4342 22.5263L5.42369 22.5961L5.41721 22.6301L5.40443 22.7466C5.3103 22.7291 5.21631 22.7103 5.12164 22.6958L4.84685 22.658L4.71652 22.6369L4.64651 22.6264L4.61241 22.6199L4.49556 22.6072L4.50835 22.4907L4.51483 22.4567L4.52534 22.3869L4.55636 22.1886L4.57459 22.0496L4.61646 21.7708L4.65432 21.492L4.68637 21.2829L4.72423 21.0041L4.75553 20.795L4.7717 20.6556L4.78606 20.5162L4.82619 20.2374L4.86406 19.9586L4.89611 19.7495L4.93397 19.4708L4.96602 19.2617L5.00388 18.9829L5.03593 18.7738L5.0738 18.495L5.10509 18.2859L5.14446 17.9374L5.17576 17.7283L5.21362 17.4495L5.24567 17.2404L5.28353 16.9616L5.31558 16.7525L5.35345 16.4737L5.38549 16.2646L5.42336 15.9858L5.45541 15.7767L5.49327 15.4979L5.52456 15.2888L5.56394 14.9404L5.59523 14.7313L5.6331 14.4525L5.66514 14.2434L5.70301 13.9646L5.73506 13.7555L5.77292 13.4767L5.80497 13.2676L5.84283 12.9888L5.87413 12.7797L5.8903 12.6403L5.90466 12.5009L5.94479 12.2221L5.98266 11.9433L6.01471 11.7342L6.05257 11.4554L6.08462 11.2463L6.12248 10.9675L6.15453 10.7584L6.19239 10.4796L6.22369 10.2706L6.26306 9.92206L6.30417 9.64327L6.33222 9.43417L6.36427 9.22507L6.40213 8.94628L6.43418 8.73719L6.47204 8.45839L6.51391 8.1797L6.54201 7.97362C6.55602 7.87924 6.57542 7.78547 6.59294 7.69171L6.47609 7.67896L6.442 7.67251L6.37198 7.66202L6.24165 7.64088L5.96372 7.60314L5.75399 7.57194L5.47434 7.5415C5.33481 7.52508 5.19602 7.49629 5.05486 7.50073C4.96099 7.50369 4.86699 7.52 4.77521 7.53898C4.65716 7.56339 4.53872 7.58833 4.42565 7.63104C4.24742 7.69838 4.08321 7.7997 3.93907 7.92377C3.80615 8.03818 3.69034 8.17133 3.59604 8.31905C3.54022 8.40648 3.49088 8.50028 3.45518 8.59779L3.40793 8.73719L3.36995 8.87658L3.33926 9.01598C3.3203 9.10804 3.31108 9.20182 3.29794 9.29477L3.25607 9.57357L3.21821 9.85236L3.17807 10.1312L3.14754 10.4099L3.11625 10.619L3.07839 10.8978L3.04634 11.1069L3.00847 11.3857L2.97643 11.5948L2.93856 11.8736L2.90651 12.0827L2.86865 12.3615L2.83736 12.5706L2.80682 12.8494L2.76669 13.1282L2.72882 13.407L2.69678 13.6161L2.65891 13.8949L2.62686 14.104L2.589 14.3828L2.55695 14.5919L2.51909 14.8707L2.47895 15.1494L2.4646 15.2888L2.44842 15.4282L2.41713 15.6373L2.37926 15.9161L2.34721 16.1252L2.30935 16.404L2.2773 16.6131L2.23944 16.8919L2.20739 17.101L2.16952 17.3798L2.12939 17.6586L2.11503 17.798L2.09886 17.9374L2.05775 18.2162L2.0297 18.4253L1.99765 18.6344L1.95979 18.9132L1.92774 19.1223L1.88987 19.4011L1.85783 19.6101L1.81996 19.8889L1.78867 20.098L1.7493 20.4465L1.718 20.6556L1.68014 20.9344L1.64809 21.1435L1.61023 21.4223L1.57818 21.6314L1.54031 21.9102L1.50827 22.1193L1.48022 22.3284L1.45993 22.4678L1.43026 22.6769L1.39973 22.9557L1.36844 23.1648L1.33057 23.4436L1.29853 23.6527L1.26066 23.9315L1.22862 24.1406L1.19075 24.4193L1.15871 24.6284L1.12084 24.9072L1.08879 25.1163L1.06074 25.3254L1.04046 25.4648C1.03002 25.5344 1.01853 25.6038 1.01181 25.6739C1.00292 25.7667 1.00104 25.8596 1.00022 25.9527L1 26.1618C1.00068 26.3014 0.998398 26.4425 1.02649 26.58C1.04613 26.6762 1.07863 26.7689 1.11771 26.8588C1.14887 26.9305 1.18391 27.001 1.22463 27.0679C1.34642 27.2679 1.509 27.4441 1.69934 27.581C1.76521 27.6284 1.83608 27.6713 1.90881 27.7074L1.97872 27.742C2.07002 27.7831 2.16198 27.8216 2.25837 27.8493C2.39549 27.8889 2.53712 27.9027 2.67784 27.9232L2.88758 27.9551L3.16723 27.9929L3.37697 28.0248L3.65662 28.0626L3.86635 28.0937L4.21592 28.133L4.49556 28.174L4.7053 28.202L4.91504 28.2339L5.19469 28.2717L5.40443 28.3036L5.54425 28.3225L5.68408 28.3413L5.89381 28.3733L6.17346 28.411L6.3832 28.4422L6.52302 28.4584L6.66285 28.4727L6.9425 28.5127L7.22215 28.5504L7.43188 28.5824L7.71153 28.6201L7.92127 28.6521L8.20092 28.6898L8.41066 28.7218L8.69031 28.7595L8.90004 28.7907L9.24961 28.83L9.45934 28.8612L9.73899 28.8989L9.94873 28.9309L10.2284 28.9686L10.4381 29.0006L10.7178 29.0383L10.9275 29.0703L11.1372 29.0982L11.4169 29.1392L11.7665 29.1785L11.9762 29.2097L12.2558 29.2474L12.4656 29.2794L12.7452 29.3171L12.955 29.349L13.2346 29.3868L13.4443 29.4187L13.6541 29.4467L13.9337 29.4877L14.2833 29.527L14.493 29.5581L14.7727 29.5959L14.9824 29.6278L15.2621 29.6656L15.4718 29.6975L15.7515 29.7353L15.9612 29.7672L16.2408 29.805L16.4506 29.8369L16.7302 29.8747L16.94 29.9059L17.2878 29.9452L17.4182 29.9656L17.4882 29.9761L17.5223 29.9825L17.6391 29.9952Z" fill="#7470FF"/>
<path d="M22.3947 20.3086L22.5115 20.3388L22.6156 20.3591L22.8839 20.3972L23.0827 20.4281L23.1526 20.4363L23.1868 20.4412L23.3036 20.448L23.3025 20.5645C23.3008 20.6197 23.298 20.6751 23.2917 20.7299L23.2428 21.0753L23.2147 21.2844L23.1827 21.4935L23.1448 21.7723L23.1128 21.9814L23.0749 22.2601L23.033 22.5389L23.005 22.748L22.973 22.9571L22.9351 23.2359L22.9038 23.445L22.8644 23.7935L22.8331 24.0026L22.7953 24.2814L22.7632 24.4905L22.7253 24.7693L22.6933 24.9784L22.6554 25.2572L22.6234 25.4663L22.5855 25.7451L22.5535 25.9542L22.5156 26.233L22.4836 26.4421L22.4457 26.7209L22.4144 26.9299L22.3982 27.0693L22.3839 27.2087L22.3438 27.4875L22.3059 27.7663L22.2738 27.9754L22.236 28.2542L22.2039 28.4633L22.166 28.7421L22.134 28.9512L22.0961 29.23L22.0641 29.4391L22.0262 29.7179L21.995 29.927L21.9555 30.2755L21.9243 30.4846L21.8864 30.7634L21.8544 30.9725L21.8165 31.2513L21.7746 31.53L21.7466 31.7391L21.7145 31.9482L21.6767 32.227L21.6446 32.4361L21.6067 32.7149L21.5747 32.924L21.5368 33.2028L21.5056 33.4119L21.475 33.6907L21.4562 33.8301L21.4349 33.9695L21.397 34.2483L21.365 34.4574L21.337 34.6665L21.3166 34.8059C21.3063 34.8749 21.2949 34.9437 21.288 35.0132C21.2765 35.1299 21.2771 35.2464 21.2761 35.3635L21.393 35.3936L21.4971 35.414L21.7657 35.4521L22.0452 35.4921L22.2549 35.5137L22.3947 35.5324L22.5346 35.5537L22.8142 35.5914L23.0239 35.6234L23.2337 35.6513L23.3735 35.6716C23.4427 35.6819 23.5118 35.6933 23.5815 35.7001C23.6985 35.7116 23.8154 35.711 23.9328 35.712L23.9357 35.5955L23.9447 35.4917L23.9838 35.2239L24.0217 34.9453L24.0635 34.6665L24.0916 34.4574L24.1334 34.1786L24.1615 33.9695L24.1935 33.7604L24.2314 33.4816L24.2634 33.2725L24.3013 32.9937L24.3333 32.7846L24.3712 32.5058L24.4025 32.2967L24.4419 31.9482L24.4732 31.7391L24.511 31.4603L24.5431 31.2513L24.581 30.9725L24.613 30.7634L24.6509 30.4846L24.6829 30.2755L24.7208 29.9967L24.7528 29.7876L24.7907 29.5088L24.8219 29.2997L24.8614 28.9512L24.8926 28.7421L24.9305 28.4633L24.9625 28.2542L25.0004 27.9754L25.0325 27.7663L25.0703 27.4875L25.1024 27.2784L25.1403 26.9996L25.1723 26.7906L25.2102 26.5118L25.2422 26.3027L25.2801 26.0239L25.3113 25.8148L25.3508 25.4663L25.382 25.2572L25.41 25.0481L25.4519 24.7693L25.48 24.5602L25.5218 24.2814L25.5597 24.0026L25.6016 23.7238L25.6296 23.5147L25.6617 23.3056L25.6996 23.0268L25.7308 22.8177L25.7614 22.5389L25.7802 22.3995L25.8015 22.2601L25.8394 21.9814L25.8714 21.7723L25.8994 21.5632L25.9198 21.4238C25.9301 21.3548 25.9415 21.2859 25.9484 21.2164C25.9599 21.0997 25.9593 20.9833 25.9603 20.8662C26.0777 20.8672 26.1945 20.8665 26.3116 20.878C26.3811 20.8848 26.4501 20.8962 26.5192 20.9063L26.6562 20.924C26.7113 20.9303 26.7668 20.9331 26.8222 20.9348L26.939 20.9359L26.9088 21.0523L26.8883 21.1561L26.8397 21.4935L26.8182 21.6329L26.7803 21.9117L26.749 22.1208L26.7185 22.3995L26.6997 22.5389L26.6783 22.6783L26.6404 22.9571L26.6084 23.1662L26.5705 23.445L26.5385 23.6541L26.5006 23.9329L26.4587 24.2117L26.4307 24.4208L26.3987 24.6299L26.3608 24.9087L26.3295 25.1178L26.2901 25.4663L26.2589 25.6754L26.221 25.9542L26.1889 26.1633L26.151 26.4421L26.119 26.6512L26.0811 26.9299L26.0491 27.139L26.0112 27.4178L25.9792 27.6269L25.9413 27.9057L25.9093 28.1148L25.8714 28.3936L25.8401 28.6027L25.8007 28.9512L25.7695 29.1603L25.7316 29.4391L25.6996 29.6482L25.6617 29.927L25.6296 30.1361L25.5918 30.4149L25.5597 30.624L25.5218 30.9028L25.4898 31.1119L25.4519 31.3906L25.4207 31.5997L25.3901 31.8785L25.3713 32.0179L25.35 32.1573L25.3121 32.4361L25.2801 32.6452L25.2422 32.924L25.2003 33.2028L25.1723 33.4119L25.1403 33.621L25.1024 33.8998L25.0703 34.1089L25.0325 34.3877L25.0004 34.5968L24.9724 34.8059L24.9313 35.0847L24.9008 35.3635L24.8833 35.5025L24.8754 35.5712L24.872 35.6381L24.8758 35.7016L24.9163 35.8093C24.965 35.8767 25.0476 35.9 25.1254 35.9135L25.3311 35.9406L25.6107 35.9817L25.8204 36.0096L26.1001 36.0514L26.3098 36.0793L26.5196 36.1113L26.7992 36.149C26.8923 36.1621 26.9849 36.1789 27.0785 36.188C27.2181 36.2016 27.3583 36.1994 27.4983 36.1998C27.5159 36.1061 27.5352 36.0123 27.5492 35.9179L27.5773 35.7118L27.6192 35.4332L27.6571 35.1544L27.6891 34.9453L27.727 34.6665L27.759 34.4574L27.7871 34.2483L27.8282 33.9695L27.8676 33.621L27.8989 33.4119L27.9368 33.1331L27.9688 32.924L28.0067 32.6452L28.0387 32.4361L28.0766 32.1573L28.1086 31.9482L28.1465 31.6694L28.1785 31.4603L28.2164 31.1816L28.2477 30.9725L28.2871 30.624L28.3183 30.4149L28.3562 30.1361L28.3882 29.927L28.4261 29.6482L28.4582 29.4391L28.4961 29.1603L28.5281 28.9512L28.566 28.6724L28.598 28.4633L28.6359 28.1845L28.6679 27.9754L28.7058 27.6966L28.737 27.4875L28.7765 27.139L28.8077 26.9299L28.8456 26.6512L28.8776 26.4421L28.9155 26.1633L28.9475 25.9542L28.9854 25.6754L29.0175 25.4663L29.0553 25.1875L29.0874 24.9784L29.1253 24.6996L29.1565 24.4905L29.1727 24.3511L29.1871 24.2117L29.2272 23.9329L29.2651 23.6541L29.2971 23.445L29.335 23.1662L29.367 22.9571L29.4049 22.6783L29.4369 22.4692L29.4748 22.1905L29.5068 21.9814L29.5447 21.7043L29.5659 21.5743L29.5765 21.5045L29.5829 21.4705L29.5957 21.3541L29.7125 21.357L29.8166 21.3659C29.9291 21.3796 30.0406 21.4009 30.1533 21.4119C30.2703 21.4234 30.3872 21.4228 30.5046 21.4238L30.4977 21.5402L30.4929 21.5742L30.4846 21.644L30.4437 21.9118L30.4157 22.1208L30.3738 22.3995L30.3458 22.6086L30.3039 22.8874L30.2759 23.0965L30.234 23.3753L30.206 23.5844L30.1747 23.7935L30.1353 24.142L30.0942 24.4208L30.0661 24.6299L30.0341 24.839L29.9962 25.1178L29.9642 25.3269L29.9263 25.6057L29.8844 25.8845L29.8564 26.0936L29.8244 26.3027L29.7865 26.5815L29.7552 26.7906L29.739 26.9299L29.7247 27.0693L29.6846 27.3481L29.6467 27.6269L29.6146 27.836L29.5768 28.1148L29.5447 28.3239L29.5068 28.6027L29.4748 28.8118L29.4369 29.0906L29.4049 29.2997L29.367 29.5785L29.335 29.7876L29.2971 30.0664L29.2659 30.2755L29.2264 30.624L29.1952 30.8331L29.1573 31.1119L29.1253 31.321L29.0874 31.5997L29.0553 31.8088L29.0175 32.0876L28.9854 32.2967L28.9475 32.5755L28.9155 32.7846L28.8776 33.0634L28.8464 33.2725L28.807 33.621L28.7658 33.8998L28.7378 34.1089L28.7058 34.318L28.6778 34.5271L28.6464 34.7362L28.598 35.0847L28.5561 35.3635L28.5281 35.5726L28.4958 35.7817L28.4617 35.989L28.4456 36.0573C28.432 36.1138 28.4112 36.169 28.3893 36.2228L28.3373 36.3392L28.4541 36.3801L28.4882 36.3843L28.5582 36.3988L28.6201 36.4052L28.7571 36.4198L29.0364 36.4598L29.1762 36.4786L29.386 36.508C29.4791 36.5217 29.5717 36.5357 29.6656 36.5421C29.7585 36.5484 29.8522 36.549 29.9453 36.5473C30.0389 36.5455 30.1324 36.5412 30.2249 36.5256C30.3201 36.5097 30.4136 36.4839 30.5046 36.4516C30.6013 36.4173 30.6958 36.3759 30.7842 36.3236C30.9106 36.2488 31.0254 36.1558 31.1308 36.0539C31.2375 35.9507 31.3353 35.8381 31.4138 35.712L31.4889 35.5726L31.5196 35.5029L31.569 35.3635L31.5889 35.2938L31.6221 35.1544C31.6425 35.062 31.6588 34.9689 31.6738 34.8756L31.6931 34.7362L31.712 34.5968L31.744 34.3877L31.7721 34.1786L31.8221 33.8301L31.8364 33.6907L31.8526 33.5513L31.8839 33.3422L31.9218 33.0634L31.9538 32.8543L31.9917 32.5755L32.0237 32.3664L32.0616 32.0876L32.0936 31.8785L32.1315 31.5997L32.1635 31.3906L32.2014 31.1119L32.2334 30.9028L32.2615 30.6937L32.3026 30.4149L32.342 30.0664L32.3733 29.8573L32.4111 29.5785L32.4432 29.3694L32.4811 29.0906L32.5131 28.8815L32.551 28.6027L32.583 28.3936L32.6209 28.1148L32.6529 27.9057L32.6908 27.6269L32.722 27.4178L32.7615 27.0693L32.7927 26.8602L32.8306 26.5815L32.8626 26.3724L32.9005 26.0936L32.9326 25.8845L32.9704 25.6057L33.0025 25.3966L33.0404 25.1178L33.0724 24.9087L33.1103 24.6299L33.1423 24.4208L33.1802 24.142L33.2114 23.9329L33.2509 23.5844L33.2821 23.3753L33.32 23.0965L33.352 22.8874L33.3801 22.6783L33.4219 22.3995L33.4703 22.0511L33.5017 21.842L33.5297 21.6329L33.5618 21.4238L33.5898 21.2147L33.6309 20.9359L33.6703 20.5874L33.7016 20.3783L33.7395 20.0995L33.7715 19.8904L33.8094 19.6116L33.8414 19.4025L33.8793 19.1237L33.9113 18.9146L33.9394 18.7055L33.9597 18.5661C33.9701 18.4966 33.9816 18.4272 33.9883 18.357C34.0017 18.2181 34.0006 18.0782 34.0001 17.9388C33.9996 17.7754 34.0003 17.6111 33.9632 17.451C33.9293 17.3046 33.8699 17.164 33.7971 17.0328C33.7303 16.9126 33.6524 16.7974 33.5577 16.6972C33.4616 16.5955 33.3501 16.5115 33.2309 16.4389C33.0996 16.3589 32.9584 16.2961 32.8117 16.2504C32.7429 16.229 32.6724 16.2122 32.6019 16.1974C32.5091 16.1781 32.416 16.1601 32.3223 16.1458L32.1125 16.1176L31.8329 16.0759L31.5533 16.0381L31.3435 16.0062L31.0639 15.9684L30.7842 15.9266L30.5745 15.8987L30.3647 15.8668L30.0851 15.829L29.8754 15.7978L29.7355 15.7817L29.5957 15.7674L29.3161 15.7274L29.0364 15.6896L28.8267 15.6577L28.547 15.6199L28.3373 15.588L28.0576 15.5502L27.8479 15.5183L27.5682 15.4805L27.3585 15.4486L27.1488 15.4206L26.8691 15.3789L26.5895 15.3411L26.3797 15.31L26.1001 15.2795L25.8204 15.2395L25.5408 15.2017L25.331 15.1698L25.0514 15.132L24.8417 15.1001L24.562 15.0623L24.3523 15.0304L24.0726 14.9926L23.8629 14.9607L23.5832 14.9229L23.3735 14.891L23.0939 14.8532L22.8142 14.8132L22.6744 14.7989L22.5346 14.7828L22.3248 14.7516L22.0452 14.7138L21.8354 14.6819L21.5558 14.6441L21.346 14.6122L21.0664 14.5744L20.8567 14.5425L20.577 14.5047L20.3673 14.4728L20.0876 14.435L19.8779 14.4039L19.5982 14.3734L19.3885 14.3439L19.2487 14.3236L19.0389 14.2956L18.7593 14.2539L18.5495 14.2259L18.3398 14.194L18.0602 14.1562C17.9436 14.1395 17.8277 14.1195 17.7106 14.1065C17.6408 14.0987 17.571 14.0925 17.5009 14.0883L17.431 14.0866L17.3614 14.0893L17.2924 14.098L17.2253 14.1139L17.1616 14.1384L17.0539 14.2147L17.0145 14.266L16.9711 14.3883L16.9668 14.4552L16.973 14.524L17.0094 14.663L17.0664 14.8024L17.1611 15.0115L17.3127 15.36L17.4139 15.5691L17.7632 16.2661L17.9031 16.5449L18.0448 16.8237L18.1597 17.0328L18.3182 17.3116C18.3805 17.4264 18.4382 17.5434 18.4969 17.66L18.6721 18.0085L18.9163 18.4964L19.0178 18.7028L19.0723 18.8331L19.1045 18.9548L19.1109 19.0139L19.1129 19.0739L19.1058 19.1997C19.098 19.2911 19.0823 19.3817 19.0684 19.4723L19.048 19.6116L19.02 19.8207L18.9781 20.0995L18.9501 20.3086L18.9082 20.5874L18.8802 20.7965L18.8489 21.0056L18.8327 21.145L18.8184 21.2844L18.7782 21.5632L18.7403 21.842L18.7083 22.0511L18.6704 22.3298L18.6384 22.5389L18.6005 22.8177L18.5685 23.0268L18.5306 23.3056L18.4986 23.5147L18.4607 23.7935L18.4294 24.0026L18.39 24.3511L18.3588 24.5602L18.3209 24.839L18.2888 25.0481L18.2509 25.3269L18.2189 25.536L18.181 25.8148L18.149 26.0239L18.1111 26.3027L18.0791 26.5118L18.0412 26.7906L18.0092 26.9996L17.9713 27.2784L17.94 27.4875L17.9095 27.7663L17.8907 27.9057L17.8694 28.0451L17.8315 28.3239C17.8184 28.4168 17.8013 28.5092 17.7924 28.6027C17.7745 28.7883 17.7878 28.9757 17.7578 29.1603C17.7425 29.2547 17.715 29.3462 17.6928 29.4391C17.6761 29.5085 17.6624 29.5777 17.6508 29.6482L17.6316 29.7876L17.611 29.927L17.5536 30.2755L17.5206 30.4846L17.4811 30.8331L17.44 31.1119L17.412 31.321L17.38 31.53L17.3421 31.8088L17.3101 32.0179L17.2911 32.1573L17.2722 32.2967L17.2402 32.5058L17.2023 32.7846L17.1712 32.9937L17.1632 33.0634L17.1543 33.2028L17.1544 33.3422L17.1642 33.4816C17.1709 33.5522 17.1868 33.6222 17.2045 33.6907L17.2466 33.8301L17.2709 33.8998L17.3274 34.0392L17.3608 34.1089L17.3982 34.1785L17.4869 34.3169L17.5938 34.4509L17.6536 34.5142L17.7833 34.6296L17.8515 34.6812L17.9903 34.7725L18.0602 34.8125L18.2 34.8822L18.3398 34.9377C18.4085 34.9613 18.4783 34.9793 18.5495 34.9931C18.619 35.0065 18.6893 35.0139 18.7593 35.024L19.0389 35.0658L19.3186 35.1036L19.5283 35.1355L19.808 35.1732L19.9474 35.1931L20.0164 35.2001L20.1472 35.1957L20.2052 35.1793L20.2552 35.1514L20.2957 35.1121L20.3261 35.0624L20.3631 34.9412L20.3859 34.8055L20.4182 34.5968L20.4463 34.3877L20.4666 34.2483L20.4963 34.0392L20.5268 33.7604L20.5679 33.4816L20.5959 33.2725L20.628 33.0634L20.656 32.8543L20.6979 32.5755L20.7259 32.3664L20.7678 32.0876L20.8057 31.8088L20.8377 31.5997L20.8756 31.321L20.9076 31.1119L20.9357 30.9028L20.9768 30.624L21.0162 30.2755L21.0474 30.0664L21.0853 29.7876L21.1174 29.5785L21.1552 29.2997L21.1873 29.0906L21.2252 28.8118L21.2572 28.6027L21.2951 28.3239L21.3271 28.1148L21.3551 27.9057L21.3962 27.6269L21.4357 27.2784L21.4669 27.0693L21.5048 26.7906L21.5467 26.5118L21.5747 26.3027L21.6166 26.0239L21.6446 25.8148L21.6767 25.6057L21.7145 25.3269L21.7466 25.1178L21.7845 24.839L21.8165 24.6299L21.8544 24.3511L21.8856 24.142L21.9251 23.7935L21.9662 23.5147L21.9942 23.3056L22.0262 23.0965L22.0641 22.8177L22.0961 22.6086L22.134 22.3298L22.166 22.1208L22.2039 21.842L22.236 21.6329L22.2738 21.3541L22.314 21.0753L22.3356 20.8662L22.3828 20.5288L22.3918 20.4251L22.3947 20.3086Z" fill="#7470FF"/>
<path d="M51.9 11.94V24.54C51.9 25.8 52.21 26.77 52.83 27.45C53.45 28.13 54.36 28.47 55.56 28.47C56.76 28.47 57.68 28.13 58.32 27.45C58.96 26.77 59.28 25.8 59.28 24.54V11.94H64.41V24.51C64.41 26.39 64.01 27.98 63.21 29.28C62.41 30.58 61.33 31.56 59.97 32.22C58.63 32.88 57.13 33.21 55.47 33.21C53.81 33.21 52.32 32.89 51 32.25C49.7 31.59 48.67 30.61 47.91 29.31C47.15 27.99 46.77 26.39 46.77 24.51V11.94H51.9ZM78.2123 16.08C80.1723 16.08 81.7323 16.72 82.8923 18C84.0723 19.26 84.6623 21 84.6623 23.22V33H79.5623V23.91C79.5623 22.79 79.2723 21.92 78.6923 21.3C78.1123 20.68 77.3323 20.37 76.3523 20.37C75.3723 20.37 74.5923 20.68 74.0123 21.3C73.4323 21.92 73.1423 22.79 73.1423 23.91V33H68.0123V16.26H73.1423V18.48C73.6623 17.74 74.3623 17.16 75.2423 16.74C76.1223 16.3 77.1123 16.08 78.2123 16.08ZM87.2072 24.6C87.2072 22.88 87.5272 21.37 88.1672 20.07C88.8272 18.77 89.7172 17.77 90.8372 17.07C91.9572 16.37 93.2072 16.02 94.5872 16.02C95.6872 16.02 96.6872 16.25 97.5872 16.71C98.5072 17.17 99.2272 17.79 99.7472 18.57V10.8H104.877V33H99.7472V30.6C99.2672 31.4 98.5772 32.04 97.6772 32.52C96.7972 33 95.7672 33.24 94.5872 33.24C93.2072 33.24 91.9572 32.89 90.8372 32.19C89.7172 31.47 88.8272 30.46 88.1672 29.16C87.5272 27.84 87.2072 26.32 87.2072 24.6ZM99.7472 24.63C99.7472 23.35 99.3872 22.34 98.6672 21.6C97.9672 20.86 97.1072 20.49 96.0872 20.49C95.0672 20.49 94.1972 20.86 93.4772 21.6C92.7772 22.32 92.4272 23.32 92.4272 24.6C92.4272 25.88 92.7772 26.9 93.4772 27.66C94.1972 28.4 95.0672 28.77 96.0872 28.77C97.1072 28.77 97.9672 28.4 98.6672 27.66C99.3872 26.92 99.7472 25.91 99.7472 24.63ZM124.369 24.36C124.369 24.84 124.339 25.34 124.279 25.86H112.669C112.749 26.9 113.079 27.7 113.659 28.26C114.259 28.8 114.989 29.07 115.849 29.07C117.129 29.07 118.019 28.53 118.519 27.45H123.979C123.699 28.55 123.189 29.54 122.449 30.42C121.729 31.3 120.819 31.99 119.719 32.49C118.619 32.99 117.389 33.24 116.029 33.24C114.389 33.24 112.929 32.89 111.649 32.19C110.369 31.49 109.369 30.49 108.649 29.19C107.929 27.89 107.569 26.37 107.569 24.63C107.569 22.89 107.919 21.37 108.619 20.07C109.339 18.77 110.339 17.77 111.619 17.07C112.899 16.37 114.369 16.02 116.029 16.02C117.649 16.02 119.089 16.36 120.349 17.04C121.609 17.72 122.589 18.69 123.289 19.95C124.009 21.21 124.369 22.68 124.369 24.36ZM119.119 23.01C119.119 22.13 118.819 21.43 118.219 20.91C117.619 20.39 116.869 20.13 115.969 20.13C115.109 20.13 114.379 20.38 113.779 20.88C113.199 21.38 112.839 22.09 112.699 23.01H119.119ZM132.205 18.63C132.685 17.85 133.375 17.22 134.275 16.74C135.175 16.26 136.205 16.02 137.365 16.02C138.745 16.02 139.995 16.37 141.115 17.07C142.235 17.77 143.115 18.77 143.755 20.07C144.415 21.37 144.745 22.88 144.745 24.6C144.745 26.32 144.415 27.84 143.755 29.16C143.115 30.46 142.235 31.47 141.115 32.19C139.995 32.89 138.745 33.24 137.365 33.24C136.185 33.24 135.155 33.01 134.275 32.55C133.395 32.07 132.705 31.44 132.205 30.66V33H127.075V10.8H132.205V18.63ZM139.525 24.6C139.525 23.32 139.165 22.32 138.445 21.6C137.745 20.86 136.875 20.49 135.835 20.49C134.815 20.49 133.945 20.86 133.225 21.6C132.525 22.34 132.175 23.35 132.175 24.63C132.175 25.91 132.525 26.92 133.225 27.66C133.945 28.4 134.815 28.77 135.835 28.77C136.855 28.77 137.725 28.4 138.445 27.66C139.165 26.9 139.525 25.88 139.525 24.6ZM146.416 24.6C146.416 22.88 146.736 21.37 147.376 20.07C148.036 18.77 148.926 17.77 150.046 17.07C151.166 16.37 152.416 16.02 153.796 16.02C154.976 16.02 156.006 16.26 156.886 16.74C157.786 17.22 158.476 17.85 158.956 18.63V16.26H164.086V33H158.956V30.63C158.456 31.41 157.756 32.04 156.856 32.52C155.976 33 154.946 33.24 153.766 33.24C152.406 33.24 151.166 32.89 150.046 32.19C148.926 31.47 148.036 30.46 147.376 29.16C146.736 27.84 146.416 26.32 146.416 24.6ZM158.956 24.63C158.956 23.35 158.596 22.34 157.876 21.6C157.176 20.86 156.316 20.49 155.296 20.49C154.276 20.49 153.406 20.86 152.686 21.6C151.986 22.32 151.636 23.32 151.636 24.6C151.636 25.88 151.986 26.9 152.686 27.66C153.406 28.4 154.276 28.77 155.296 28.77C156.316 28.77 157.176 28.4 157.876 27.66C158.596 26.92 158.956 25.91 158.956 24.63ZM177.128 28.65V33H174.518C172.658 33 171.208 32.55 170.168 31.65C169.128 30.73 168.608 29.24 168.608 27.18V20.52H166.568V16.26H168.608V12.18H173.738V16.26H177.098V20.52H173.738V27.24C173.738 27.74 173.858 28.1 174.098 28.32C174.338 28.54 174.738 28.65 175.298 28.65H177.128ZM195.765 24.36C195.765 24.84 195.735 25.34 195.675 25.86H184.065C184.145 26.9 184.475 27.7 185.055 28.26C185.655 28.8 186.385 29.07 187.245 29.07C188.525 29.07 189.415 28.53 189.915 27.45H195.375C195.095 28.55 194.585 29.54 193.845 30.42C193.125 31.3 192.215 31.99 191.115 32.49C190.015 32.99 188.785 33.24 187.425 33.24C185.785 33.24 184.325 32.89 183.045 32.19C181.765 31.49 180.765 30.49 180.045 29.19C179.325 27.89 178.965 26.37 178.965 24.63C178.965 22.89 179.315 21.37 180.015 20.07C180.735 18.77 181.735 17.77 183.015 17.07C184.295 16.37 185.765 16.02 187.425 16.02C189.045 16.02 190.485 16.36 191.745 17.04C193.005 17.72 193.985 18.69 194.685 19.95C195.405 21.21 195.765 22.68 195.765 24.36ZM190.515 23.01C190.515 22.13 190.215 21.43 189.615 20.91C189.015 20.39 188.265 20.13 187.365 20.13C186.505 20.13 185.775 20.38 185.175 20.88C184.595 21.38 184.235 22.09 184.095 23.01H190.515Z" fill="#262D33"/>
</svg>
