<svg width="24" height="20" viewBox="0 0 24 20" fill="none" xmlns="http://www.w3.org/2000/svg">
<path d="M2.34481 11.7241V12.4138H3.72412V11.7241C3.72412 11.4166 3.78619 11.1262 3.87929 10.8497C2.1924 10.3276 0.966188 8.75448 0.966188 6.89586C0.966188 4.61034 2.81929 2.75793 5.10412 2.75793C6.20964 2.75793 7.21102 3.19379 7.95309 3.9C8.3855 1.67793 10.3414 0 12.6896 0C15.3558 0 17.5172 2.16138 17.5172 4.82759C17.5172 6.5869 16.5731 8.12207 15.1662 8.96552H15.4483C16.9717 8.96552 18.2069 10.2007 18.2069 11.7241H18.8965L23.0345 8.96552H23.7241V18.6207H23.0345L18.8965 15.8621H18.2069V17.2414C18.2069 18.7648 16.9717 20 15.4483 20H6.48274C4.95929 20 3.72412 18.7648 3.72412 17.2414V15.1724H2.34481V15.8621H0.275845V11.7241H2.34481Z" fill="#31373D"/>
<path d="M9.24114 4.82755C9.24114 6.73169 10.7853 8.27582 12.6894 8.27582C14.5936 8.27582 16.1377 6.73169 16.1377 4.82755C16.1377 2.92341 14.5936 1.37927 12.6894 1.37927C10.7853 1.37927 9.24114 2.92272 9.24114 4.82755Z" fill="#66757F"/>
<path d="M12.6895 6.20686C11.9278 6.20686 11.3102 5.58932 11.3102 4.82755C11.3102 4.06578 11.9278 3.44824 12.6895 3.44824C13.4513 3.44824 14.0688 4.06578 14.0688 4.82755C14.0688 5.58932 13.4513 6.20686 12.6895 6.20686Z" fill="#CCD6DD"/>
<path d="M5.10417 9.65518C3.58063 9.65518 2.34555 8.4201 2.34555 6.89656C2.34555 5.37302 3.58063 4.13794 5.10417 4.13794C6.62772 4.13794 7.86279 5.37302 7.86279 6.89656C7.86279 8.4201 6.62772 9.65518 5.10417 9.65518Z" fill="#66757F"/>
<path d="M5.10409 8.27583C4.34232 8.27583 3.72478 7.65829 3.72478 6.89652C3.72478 6.13475 4.34232 5.51721 5.10409 5.51721C5.86586 5.51721 6.4834 6.13475 6.4834 6.89652C6.4834 7.65829 5.86586 8.27583 5.10409 8.27583Z" fill="#CCD6DD"/>
<path d="M12.6895 11.0344H5.7929V17.931H12.6895V11.0344Z" fill="#8899A6"/>
<path d="M11.3105 12.4138H7.17262V16.5517H11.3105V12.4138Z" fill="#31373D"/>
<path d="M15.4488 17.931C14.687 17.931 14.0695 17.3134 14.0695 16.5517C14.0695 15.7899 14.687 15.1724 15.4488 15.1724C16.2106 15.1724 16.8281 15.7899 16.8281 16.5517C16.8281 17.3134 16.2106 17.931 15.4488 17.931Z" fill="#8899A6"/>
</svg>
