<svg width="362" height="514" viewBox="0 0 362 514" fill="none" xmlns="http://www.w3.org/2000/svg">
<g clip-path="url(#clip0_541_5217)">
<path d="M361.639 117.551H358.919V43.0937C358.919 37.4346 357.803 31.8309 355.635 26.6025C353.468 21.3741 350.29 16.6235 346.285 12.6219C342.28 8.62025 337.524 5.44599 332.291 3.28033C327.058 1.11466 321.449 3.57045e-06 315.784 1.20612e-10H157.888C152.224 -1.33886e-05 146.615 1.11463 141.382 3.28028C136.148 5.44592 131.393 8.62017 127.388 12.6218C123.382 16.6234 120.205 21.374 118.037 26.6024C115.87 31.8307 114.754 37.4345 114.754 43.0936V451.571C114.754 463 119.298 473.961 127.388 482.043C135.477 490.124 146.448 494.664 157.888 494.664H315.784C327.224 494.664 338.195 490.124 346.285 482.043C354.374 473.961 358.919 463 358.919 451.571V170.551H361.639V117.551Z" fill="#E6E6E6"/>
<path d="M317.525 11.2115H296.914C297.862 13.5331 298.224 16.0519 297.968 18.5461C297.712 21.0403 296.846 23.4333 295.446 25.5143C294.046 27.5953 292.155 29.3004 289.94 30.4794C287.726 31.6585 285.255 32.2753 282.745 32.2755H192.288C189.779 32.2753 187.308 31.6585 185.093 30.4794C182.878 29.3004 180.987 27.5953 179.587 25.5143C178.188 23.4333 177.321 21.0403 177.065 18.5461C176.809 16.0519 177.171 13.533 178.119 11.2115H158.869C150.325 11.2115 142.132 14.602 136.091 20.6373C130.05 26.6726 126.656 34.8581 126.656 43.3933V451.271C126.656 455.497 127.489 459.682 129.108 463.586C130.727 467.491 133.1 471.039 136.091 474.027C139.082 477.015 142.633 479.386 146.541 481.003C150.45 482.621 154.638 483.453 158.868 483.453H317.525C321.755 483.453 325.944 482.621 329.852 481.003C333.76 479.386 337.311 477.015 340.302 474.027C343.294 471.039 345.666 467.491 347.285 463.587C348.904 459.682 349.737 455.497 349.737 451.271V43.3933C349.737 39.1671 348.904 34.9824 347.285 31.0779C345.666 27.1734 343.294 23.6257 340.302 20.6373C337.311 17.649 333.76 15.2785 329.852 13.6612C325.944 12.0439 321.755 11.2115 317.525 11.2115Z" fill="white"/>
<path d="M207.768 511.035H205.727L209.809 238.479H211.85L207.768 511.035Z" fill="#262D33"/>
<path d="M263.555 511.035H261.514L257.432 238.479H259.473L263.555 511.035Z" fill="#262D33"/>
<path d="M258.113 243.917H210.49V245.956H258.113V243.917Z" fill="#262D33"/>
<path d="M258.113 279.261H210.49V281.3H258.113V279.261Z" fill="#262D33"/>
<path d="M259.473 314.605H209.809V316.644H259.473V314.605Z" fill="#262D33"/>
<path d="M260.153 349.949H209.809V351.988H260.153V349.949Z" fill="#262D33"/>
<path d="M260.834 385.293H209.129V387.332H260.834V385.293Z" fill="#262D33"/>
<path d="M260.835 420.637H208.449V422.676H260.835V420.637Z" fill="#262D33"/>
<path d="M261.514 455.981H207.768V458.02H261.514V455.981Z" fill="#262D33"/>
<path d="M262.195 491.325H206.408V493.364H262.195V491.325Z" fill="#262D33"/>
<path d="M232.034 371.268C247.819 371.268 260.616 358.483 260.616 342.712C260.616 326.941 247.819 314.157 232.034 314.157C216.248 314.157 203.451 326.941 203.451 342.712C203.451 358.483 216.248 371.268 232.034 371.268Z" fill="#262D33"/>
<path d="M248.845 362.449L240.301 363.995L243.072 379.289L251.616 377.744L248.845 362.449Z" fill="#262D33"/>
<path d="M231.757 365.54L223.213 367.085L225.984 382.379L234.529 380.834L231.757 365.54Z" fill="#262D33"/>
<path d="M230.521 385.595C233.571 383.015 235.258 379.997 234.29 378.854C233.321 377.712 230.064 378.877 227.014 381.458C223.964 384.038 222.277 387.056 223.246 388.199C224.214 389.341 227.472 388.176 230.521 385.595Z" fill="#262D33"/>
<path d="M247.254 382.569C250.303 379.989 251.991 376.971 251.022 375.828C250.054 374.686 246.796 375.851 243.746 378.431C240.697 381.012 239.01 384.03 239.978 385.172C240.947 386.315 244.204 385.149 247.254 382.569Z" fill="#262D33"/>
<path d="M230.032 345.487C235.427 345.487 239.801 341.117 239.801 335.727C239.801 330.337 235.427 325.968 230.032 325.968C224.637 325.968 220.264 330.337 220.264 335.727C220.264 341.117 224.637 345.487 230.032 345.487Z" fill="white"/>
<path d="M226.018 335.482C227.816 335.482 229.274 334.026 229.274 332.229C229.274 330.432 227.816 328.976 226.018 328.976C224.22 328.976 222.762 330.432 222.762 332.229C222.762 334.026 224.22 335.482 226.018 335.482Z" fill="#262D33"/>
<path d="M254.582 311.647C255.012 301.075 245.892 292.121 234.212 291.647C222.532 291.173 212.716 299.359 212.286 309.931C211.856 320.502 219.975 322.904 231.655 323.378C243.334 323.852 254.152 322.219 254.582 311.647Z" fill="#7470FF"/>
<path d="M219.571 340.7C220.125 338.287 214.337 334.903 206.644 333.141C198.95 331.379 192.265 331.907 191.711 334.32C191.158 336.733 196.946 340.117 204.639 341.879C212.332 343.641 219.018 343.113 219.571 340.7Z" fill="#262D33"/>
<path d="M275.679 350.021C276.232 347.609 270.444 344.224 262.751 342.463C255.058 340.701 248.372 341.229 247.819 343.642C247.265 346.054 253.053 349.439 260.746 351.2C268.44 352.962 275.125 352.434 275.679 350.021Z" fill="#262D33"/>
<path d="M239.885 353.966C240.038 354.806 240.025 355.669 239.845 356.505C239.665 357.341 239.322 358.133 238.835 358.836C238.348 359.539 237.728 360.139 237.009 360.603C236.29 361.066 235.487 361.383 234.645 361.537C233.803 361.69 232.939 361.675 232.103 361.495C231.267 361.314 230.474 360.971 229.771 360.484C229.067 359.998 228.467 359.377 228.003 358.659C227.54 357.94 227.223 357.137 227.07 356.296L227.068 356.283C226.427 352.748 229.164 351.496 232.703 350.856C236.242 350.216 239.244 350.43 239.885 353.966Z" fill="white"/>
<path d="M330.587 173.485L147.63 189.867C146.732 189.946 145.838 189.666 145.146 189.088C144.454 188.511 144.02 187.682 143.938 186.785L139.871 141.444C139.791 140.547 140.071 139.654 140.65 138.963C141.228 138.271 142.057 137.837 142.955 137.756L325.912 121.374C326.81 121.295 327.703 121.574 328.395 122.152C329.087 122.73 329.522 123.558 329.604 124.456L333.671 169.797C333.75 170.694 333.47 171.586 332.892 172.278C332.314 172.969 331.485 173.403 330.587 173.485ZM143.077 139.11C142.538 139.159 142.04 139.419 141.693 139.834C141.346 140.249 141.178 140.784 141.226 141.323L145.293 186.664C145.342 187.202 145.603 187.699 146.018 188.046C146.433 188.392 146.969 188.56 147.508 188.513L330.465 172.131C331.004 172.082 331.501 171.822 331.848 171.407C332.195 170.992 332.363 170.456 332.316 169.918L328.248 124.577C328.199 124.038 327.939 123.541 327.523 123.195C327.108 122.848 326.572 122.68 326.033 122.728L143.077 139.11Z" fill="#E6E6E6"/>
<path d="M169.01 175.961C176.9 175.961 183.297 169.57 183.297 161.687C183.297 153.804 176.9 147.414 169.01 147.414C161.119 147.414 154.723 153.804 154.723 161.687C154.723 169.57 161.119 175.961 169.01 175.961Z" fill="#262D33"/>
<path d="M201.024 149.267C200.713 149.295 200.41 149.384 200.133 149.529C199.856 149.674 199.61 149.871 199.409 150.111C199.209 150.351 199.058 150.628 198.964 150.926C198.871 151.224 198.837 151.538 198.865 151.849C198.893 152.16 198.982 152.463 199.127 152.739C199.272 153.016 199.47 153.262 199.71 153.462C199.95 153.662 200.227 153.814 200.525 153.907C200.824 154 201.138 154.034 201.449 154.006L313.256 143.995C313.567 143.967 313.87 143.878 314.147 143.733C314.424 143.588 314.67 143.39 314.871 143.151C315.071 142.911 315.222 142.634 315.316 142.336C315.409 142.038 315.443 141.724 315.415 141.413C315.387 141.102 315.298 140.799 315.153 140.522C315.008 140.246 314.81 140 314.57 139.8C314.33 139.6 314.053 139.448 313.755 139.355C313.456 139.262 313.142 139.228 312.831 139.256L201.024 149.267Z" fill="#E6E6E6"/>
<path d="M202.299 163.484C201.987 163.51 201.683 163.598 201.405 163.743C201.126 163.887 200.879 164.085 200.678 164.325C200.476 164.565 200.324 164.842 200.231 165.141C200.137 165.44 200.103 165.754 200.131 166.066C200.159 166.378 200.248 166.682 200.394 166.959C200.539 167.236 200.738 167.482 200.979 167.682C201.22 167.883 201.498 168.034 201.798 168.126C202.097 168.219 202.412 168.252 202.724 168.222L314.531 158.211C315.159 158.154 315.74 157.851 316.144 157.366C316.548 156.882 316.744 156.258 316.687 155.63C316.631 155.002 316.328 154.422 315.843 154.017C315.359 153.613 314.734 153.417 314.106 153.473L202.299 163.484Z" fill="#E6E6E6"/>
<path d="M263.809 184.133C266.698 176.582 267.116 169.727 264.743 168.821C262.371 167.915 258.106 173.302 255.217 180.852C252.328 188.403 251.91 195.258 254.282 196.164C256.655 197.07 260.92 191.684 263.809 184.133Z" fill="#262D33"/>
<path d="M261.353 209.287C263.945 193.329 253.098 178.293 237.125 175.703C221.152 173.113 206.102 183.951 203.51 199.909C200.918 215.867 211.765 230.903 227.738 233.492C243.711 236.082 258.761 225.245 261.353 209.287Z" fill="#262D33"/>
<path d="M227.981 227.571H219.08V243.504H227.981V227.571Z" fill="#262D33"/>
<path d="M245.784 227.571H236.883V243.504H245.784V227.571Z" fill="#262D33"/>
<path d="M226.498 246.468C230.595 246.468 233.916 245.224 233.916 243.689C233.916 242.154 230.595 240.91 226.498 240.91C222.401 240.91 219.08 242.154 219.08 243.689C219.08 245.224 222.401 246.468 226.498 246.468Z" fill="#262D33"/>
<path d="M244.301 246.098C248.397 246.098 251.718 244.854 251.718 243.319C251.718 241.784 248.397 240.54 244.301 240.54C240.204 240.54 236.883 241.784 236.883 243.319C236.883 244.854 240.204 246.098 244.301 246.098Z" fill="#262D33"/>
<path d="M204.009 177.375C201.643 166.79 209.206 156.094 220.901 153.485C232.596 150.876 243.994 157.342 246.36 167.927C248.726 178.513 240.975 182.417 229.281 185.026C217.586 187.635 206.375 187.96 204.009 177.375Z" fill="#7470FF"/>
<path d="M212.667 197.287C213.755 194.994 208.712 190.328 201.401 186.864C194.091 183.4 187.282 182.45 186.194 184.743C185.105 187.036 190.149 191.703 197.459 195.167C204.77 198.631 211.578 199.58 212.667 197.287Z" fill="#262D33"/>
<path d="M55.8997 501.402C72.0817 501.402 85.1998 488.296 85.1998 472.129C85.1998 455.962 72.0817 442.857 55.8997 442.857C39.7177 442.857 26.5996 455.962 26.5996 472.129C26.5996 488.296 39.7177 501.402 55.8997 501.402Z" fill="#262D33"/>
<path d="M51.4501 495.103H42.5488V511.036H51.4501V495.103Z" fill="#262D33"/>
<path d="M69.2509 495.103H60.3496V511.036H69.2509V495.103Z" fill="#262D33"/>
<path d="M49.9666 514C54.0633 514 57.3843 512.756 57.3843 511.221C57.3843 509.686 54.0633 508.442 49.9666 508.442C45.8699 508.442 42.5488 509.686 42.5488 511.221C42.5488 512.756 45.8699 514 49.9666 514Z" fill="#262D33"/>
<path d="M67.7674 513.629C71.8641 513.629 75.1851 512.385 75.1851 510.85C75.1851 509.316 71.8641 508.071 67.7674 508.071C63.6707 508.071 60.3496 509.316 60.3496 510.85C60.3496 512.385 63.6707 513.629 67.7674 513.629Z" fill="#262D33"/>
<path d="M56.6429 474.723C62.1734 474.723 66.6568 470.244 66.6568 464.718C66.6568 459.193 62.1734 454.714 56.6429 454.714C51.1123 454.714 46.6289 459.193 46.6289 464.718C46.6289 470.244 51.1123 474.723 56.6429 474.723Z" fill="white"/>
<path d="M56.6427 468.053C58.4862 468.053 59.9807 466.56 59.9807 464.718C59.9807 462.877 58.4862 461.384 56.6427 461.384C54.7992 461.384 53.3047 462.877 53.3047 464.718C53.3047 466.56 54.7992 468.053 56.6427 468.053Z" fill="#262D33"/>
<path d="M27.4781 444.907C25.1122 434.321 32.6749 423.625 44.3698 421.016C56.0647 418.407 67.4632 424.874 69.829 435.459C72.1948 446.044 64.4442 449.948 52.7494 452.557C41.0545 455.166 29.844 455.492 27.4781 444.907Z" fill="#E6E6E6"/>
<path d="M77.2639 367.553C80.1526 360.002 80.571 353.147 78.1984 352.241C75.8258 351.335 71.5606 356.721 68.6719 364.272C65.7832 371.822 65.3648 378.678 67.7374 379.584C70.11 380.49 74.3751 375.103 77.2639 367.553Z" fill="#262D33"/>
<path d="M74.8084 392.706C77.4004 376.748 66.553 361.712 50.5799 359.123C34.6069 356.533 19.5569 367.37 16.9648 383.328C14.3728 399.286 25.2202 414.322 41.1932 416.912C57.1663 419.501 72.2163 408.664 74.8084 392.706Z" fill="#262D33"/>
<path d="M41.4345 410.99H32.5332V426.924H41.4345V410.99Z" fill="#262D33"/>
<path d="M59.2392 410.99H50.3379V426.924H59.2392V410.99Z" fill="#262D33"/>
<path d="M39.951 429.888C44.0477 429.888 47.3687 428.644 47.3687 427.109C47.3687 425.574 44.0477 424.33 39.951 424.33C35.8542 424.33 32.5332 425.574 32.5332 427.109C32.5332 428.644 35.8542 429.888 39.951 429.888Z" fill="#262D33"/>
<path d="M57.7557 429.517C61.8524 429.517 65.1734 428.273 65.1734 426.738C65.1734 425.204 61.8524 423.959 57.7557 423.959C53.6589 423.959 50.3379 425.204 50.3379 426.738C50.3379 428.273 53.6589 429.517 57.7557 429.517Z" fill="#262D33"/>
<path d="M46.6272 390.611C52.1578 390.611 56.6412 386.132 56.6412 380.606C56.6412 375.081 52.1578 370.602 46.6272 370.602C41.0967 370.602 36.6133 375.081 36.6133 380.606C36.6133 386.132 41.0967 390.611 46.6272 390.611Z" fill="white"/>
<path d="M46.6271 383.941C48.4706 383.941 49.965 382.448 49.965 380.606C49.965 378.765 48.4706 377.272 46.6271 377.272C44.7835 377.272 43.2891 378.765 43.2891 380.606C43.2891 382.448 44.7835 383.941 46.6271 383.941Z" fill="#262D33"/>
<path d="M17.4644 360.795C15.0986 350.209 22.6613 339.513 34.3561 336.904C46.051 334.295 57.4495 340.761 59.8153 351.347C62.1811 361.932 54.4305 365.836 42.7356 368.445C31.0408 371.054 19.8303 371.38 17.4644 360.795Z" fill="#7470FF"/>
<path d="M26.122 380.707C27.2105 378.414 22.1666 373.747 14.8561 370.283C7.54568 366.819 0.737049 365.87 -0.351419 368.163C-1.43989 370.455 3.60399 375.122 10.9144 378.586C18.2249 382.05 25.0336 382.999 26.122 380.707Z" fill="#262D33"/>
<path d="M31.4941 398.577C31.4941 401.442 38.878 407.1 47.0714 407.1C55.2648 407.1 62.947 399.034 62.947 396.169C62.947 393.304 55.2648 396.725 47.0714 396.725C38.878 396.725 31.4941 395.712 31.4941 398.577Z" fill="white"/>
<path d="M171.863 388.704C174.752 381.154 175.171 374.298 172.798 373.392C170.425 372.486 166.16 377.873 163.272 385.423C160.383 392.974 159.964 399.829 162.337 400.735C164.71 401.641 168.975 396.255 171.863 388.704Z" fill="#262D33"/>
<path d="M175.529 419.975C178.121 404.017 167.274 388.981 151.301 386.391C135.328 383.802 120.278 394.639 117.686 410.597C115.093 426.555 125.941 441.591 141.914 444.18C157.887 446.77 172.937 435.933 175.529 419.975Z" fill="#262D33"/>
<path d="M133.256 438.26H142.157L140.415 457.34L133.256 454.192V438.26Z" fill="#262D33"/>
<path d="M140.781 462.946C142.135 462.22 141.661 458.708 139.723 455.102C137.785 451.496 135.117 449.161 133.763 449.888C132.41 450.614 132.884 454.125 134.821 457.731C136.759 461.337 139.428 463.672 140.781 462.946Z" fill="#262D33"/>
<path d="M152.662 438.308H161.564L159.822 457.389L152.662 454.242V438.308Z" fill="#262D33"/>
<path d="M160.187 462.995C161.541 462.269 161.067 458.758 159.129 455.152C157.191 451.546 154.523 449.211 153.169 449.937C151.816 450.663 152.29 454.175 154.228 457.781C156.166 461.387 158.834 463.721 160.187 462.995Z" fill="#262D33"/>
<path d="M147.35 417.88C152.88 417.88 157.364 413.4 157.364 407.875C157.364 402.35 152.88 397.871 147.35 397.871C141.819 397.871 137.336 402.35 137.336 407.875C137.336 413.4 141.819 417.88 147.35 417.88Z" fill="white"/>
<path d="M147.35 411.21C149.193 411.21 150.688 409.717 150.688 407.875C150.688 406.033 149.193 404.54 147.35 404.54C145.506 404.54 144.012 406.033 144.012 407.875C144.012 409.717 145.506 411.21 147.35 411.21Z" fill="#262D33"/>
<path d="M118.185 388.063C115.819 377.478 123.382 366.782 135.077 364.173C146.772 361.564 158.17 368.03 160.536 378.616C162.902 389.201 155.151 393.105 143.456 395.714C131.761 398.323 120.551 398.649 118.185 388.063Z" fill="#F2F2F2"/>
<path d="M124.351 406.679C126.395 405.172 124.154 398.679 119.347 392.176C114.54 385.674 108.987 381.626 106.944 383.133C104.9 384.641 107.141 391.134 111.948 397.636C116.755 404.138 122.308 408.187 124.351 406.679Z" fill="#262D33"/>
<path d="M160.903 430.379C160.903 428.018 154.818 423.356 148.065 423.356C141.312 423.356 134.98 430.003 134.98 432.364C134.98 434.726 141.312 431.906 148.065 431.906C154.818 431.906 160.903 432.741 160.903 430.379Z" fill="white"/>
<path d="M130.21 390.778C121.721 390.782 113.315 389.114 105.472 385.871C97.629 382.627 90.5027 377.871 84.5004 371.874C78.4981 365.878 73.7375 358.758 70.4907 350.922C67.2439 343.087 65.5746 334.689 65.5781 326.208C65.5781 326.073 65.5785 325.931 65.5861 325.796C65.7841 290.434 94.7746 261.637 130.21 261.637C144.79 261.639 158.941 266.566 170.365 275.617C181.789 284.667 189.815 297.311 193.14 311.493C196.464 325.676 194.891 340.565 188.677 353.742C182.463 366.92 171.973 377.611 158.91 384.08C149.994 388.512 140.167 390.806 130.21 390.778ZM130.21 262.997C113.505 263.034 97.4901 269.655 85.6442 281.421C73.7984 293.188 67.0789 309.15 66.9458 325.838C66.9385 325.982 66.9388 326.098 66.9388 326.208C66.9345 342.238 73.0265 357.671 83.9817 369.384C94.9369 381.096 109.937 388.212 125.946 389.293C141.955 390.373 157.777 385.337 170.209 375.203C182.641 365.069 190.755 350.594 192.909 334.709C194.125 325.771 193.412 316.677 190.818 308.037C188.224 299.397 183.809 291.413 177.869 284.619C171.93 277.826 164.604 272.382 156.383 268.652C148.163 264.922 139.238 262.994 130.21 262.997Z" fill="#262D33"/>
<path d="M159.481 329.334L115.244 303.818C115.037 303.698 114.803 303.636 114.564 303.636C114.325 303.636 114.09 303.698 113.883 303.818C113.677 303.937 113.505 304.109 113.385 304.315C113.266 304.522 113.203 304.756 113.203 304.995V356.027C113.203 356.266 113.266 356.5 113.385 356.707C113.505 356.914 113.677 357.085 113.883 357.205C114.09 357.324 114.325 357.387 114.564 357.387C114.803 357.387 115.037 357.324 115.244 357.205L159.481 331.688C159.688 331.569 159.86 331.398 159.979 331.191C160.098 330.984 160.161 330.75 160.161 330.511C160.161 330.273 160.098 330.038 159.979 329.832C159.86 329.625 159.688 329.453 159.481 329.334L115.244 303.818C115.037 303.698 114.803 303.636 114.564 303.636C114.325 303.636 114.09 303.698 113.883 303.818C113.677 303.937 113.505 304.109 113.385 304.315C113.266 304.522 113.203 304.756 113.203 304.995V356.027C113.203 356.266 113.266 356.5 113.385 356.707C113.505 356.914 113.677 357.085 113.883 357.205C114.09 357.324 114.325 357.387 114.564 357.387C114.803 357.387 115.037 357.324 115.244 357.205L159.481 331.688C159.688 331.569 159.86 331.398 159.979 331.191C160.098 330.984 160.161 330.75 160.161 330.511C160.161 330.273 160.098 330.038 159.979 329.832C159.86 329.625 159.688 329.453 159.481 329.334Z" fill="#7470FF"/>
<path d="M154.022 509.676C173.937 509.676 190.08 509.068 190.08 508.317C190.08 507.566 173.937 506.958 154.022 506.958C134.108 506.958 117.965 507.566 117.965 508.317C117.965 509.068 134.108 509.676 154.022 509.676Z" fill="#E6E6E6"/>
</g>
<defs>
<clipPath id="clip0_541_5217">
<rect width="362" height="514" fill="white"/>
</clipPath>
</defs>
</svg>
